<svg width="32" height="32" viewBox="0 0 32 32" fill="none" xmlns="http://www.w3.org/2000/svg">
<path d="M4.27142 11.7633C1.56611 16.4578 3.28593 23.5821 6.27756 27.9018C7.77086 30.0614 9.28273 32 11.3535 32C11.3925 32 11.4317 31.9992 11.4717 31.9977C12.4446 31.9588 13.1477 31.6593 13.8275 31.3698C14.5906 31.0446 15.3799 30.7083 16.618 30.7083C17.7958 30.7083 18.5474 31.0337 19.2743 31.3482C19.9907 31.6582 20.7286 31.9788 21.8189 31.9583C24.1514 31.9149 25.5835 29.823 26.8471 27.9776C28.1656 26.0508 28.827 24.18 29.0501 23.4651L29.0591 23.4367C29.1016 23.3096 29.0416 23.1709 28.9198 23.115C28.9165 23.1134 28.9041 23.1083 28.9006 23.1068C28.4899 22.9388 24.8868 21.3404 24.8489 16.9838C24.8137 13.4443 27.5519 11.5699 28.101 11.2302L28.1266 11.2142C28.1861 11.1759 28.2276 11.1152 28.2416 11.0457C28.2557 10.9764 28.241 10.9042 28.2011 10.8459C26.3111 8.08003 23.4143 7.66319 22.2481 7.61304C22.0788 7.59614 21.9042 7.58765 21.7287 7.58765C20.3589 7.58765 19.0467 8.105 17.9925 8.52068C17.2648 8.80763 16.6362 9.05545 16.2027 9.05545C15.7156 9.05545 15.0834 8.80459 14.3514 8.51418C13.3725 8.12567 12.263 7.68543 11.0885 7.68543C11.0605 7.68543 11.0329 7.68575 11.0057 7.68627C8.27468 7.72645 5.69411 9.28889 4.27142 11.7633Z" fill="white"/>
<path d="M22.2468 0.000201593C20.593 0.067559 18.6091 1.08558 17.4233 2.47448C16.4156 3.64191 15.4311 5.58835 15.6905 7.55031C15.7068 7.67307 15.8066 7.76781 15.9301 7.77736C16.0418 7.78606 16.1557 7.79047 16.2692 7.79058C17.8863 7.79058 19.6308 6.89594 20.8221 5.45541C22.076 3.93431 22.71 1.98221 22.5183 0.233644C22.5031 0.0966213 22.3826 -0.00514923 22.2468 0.000201593Z" fill="white"/>
</svg>
