<svg width="80" height="80" viewBox="0 0 80 80" fill="none" xmlns="http://www.w3.org/2000/svg">
<g clip-path="url(#clip0_4_591)">
<path d="M18.6054 33.8658L56.1144 57.7655L55.6094 69.3165L18.1023 45.4205L18.6054 33.8658Z" fill="#9E3E17"/>
<path d="M37.5338 24.0129L75.0464 47.9107L56.1138 57.7656L18.6048 33.8659L37.5338 24.0129Z" fill="#F05E3E"/>
<path d="M56.1144 57.7654L75.047 47.9106L74.542 59.4615L55.6094 69.3164L56.1144 57.7654Z" fill="#B54921"/>
<path d="M26.7231 61.578L24.5047 48.9983L4.44297 40.1841L6.66132 52.7638L26.7231 61.578Z" fill="#852C0B"/>
<path d="M46.1419 40.1603C47.2026 39.6393 48.3712 39.3759 49.5528 39.3914C50.7344 39.4069 51.8957 39.7009 52.9424 40.2496C54.8051 41.357 54.7858 43.1157 52.8953 44.1753C51.8301 44.6994 50.6559 44.9637 49.4689 44.9464C48.2818 44.9292 47.1158 44.6309 46.0663 44.076C44.224 42.9807 44.2433 41.2219 46.1419 40.1603Z" fill="url(#paint0_linear_4_591)"/>
<path d="M59.9892 31.5683L57.7739 18.9857L24.5047 48.9983L26.7231 61.578L59.9892 31.5683Z" fill="#B34820"/>
<path d="M24.5051 48.998L57.7743 18.9855L37.7094 10.1741L4.44336 40.1838L24.5051 48.998Z" fill="#F05E3E"/>
<path d="M17.7193 36.4863C18.717 35.7617 19.8713 35.2825 21.0888 35.0875C22.3062 34.8924 23.5525 34.9871 24.7266 35.3637C26.845 36.1717 27.1335 37.981 25.3792 39.408C24.3777 40.137 23.2178 40.6184 21.9943 40.8126C20.7709 41.0068 19.5189 40.9084 18.3409 40.5253C16.2513 39.7283 15.9628 37.919 17.7193 36.4863Z" fill="url(#paint1_linear_4_591)"/>
<path d="M28.7193 26.4863C29.717 25.7617 30.8713 25.2825 32.0888 25.0875C33.3062 24.8924 34.5525 24.9871 35.7266 25.3637C37.845 26.1717 38.1335 27.981 36.3792 29.408C35.3777 30.137 34.2178 30.6184 32.9943 30.8126C31.7709 31.0068 30.5189 30.9084 29.3409 30.5253C27.2513 29.7283 26.9628 27.919 28.7193 26.4863Z" fill="url(#paint2_linear_4_591)"/>
<path d="M38.7193 17.4863C39.717 16.7617 40.8713 16.2825 42.0888 16.0875C43.3062 15.8924 44.5525 15.9871 45.7266 16.3637C47.845 17.1717 48.1335 18.981 46.3792 20.408C45.3777 21.137 44.2178 21.6184 42.9943 21.8126C41.7709 22.0068 40.5189 21.9084 39.3409 21.5253C37.2513 20.7283 36.9628 18.919 38.7193 17.4863Z" fill="url(#paint3_linear_4_591)"/>
<path d="M56.4622 46.1308C57.6114 45.6943 58.8474 45.5355 60.0696 45.6673C61.2918 45.7991 62.4656 46.2177 63.4953 46.8891C65.3116 48.2093 65.1241 50.0221 63.0725 50.9352C61.9234 51.374 60.6867 51.5345 59.4637 51.4035C58.2407 51.2726 57.066 50.8539 56.0358 50.1818C54.2195 48.8617 54.4071 47.0488 56.4622 46.1308Z" fill="url(#paint4_linear_4_591)"/>
</g>
<defs>
<linearGradient id="paint0_linear_4_591" x1="45.7398" y1="39.9212" x2="53.2923" y2="44.4113" gradientUnits="userSpaceOnUse">
<stop stop-color="#BA3B20"/>
<stop offset="0.234375" stop-color="#D74525"/>
<stop offset="1" stop-color="#FF8565"/>
</linearGradient>
<linearGradient id="paint1_linear_4_591" x1="17.2633" y1="36.3124" x2="25.8294" y2="39.5797" gradientUnits="userSpaceOnUse">
<stop stop-color="#BA3B20"/>
<stop offset="0.229167" stop-color="#D74525"/>
<stop offset="1" stop-color="#FF8565"/>
</linearGradient>
<linearGradient id="paint2_linear_4_591" x1="28.2633" y1="26.3124" x2="36.8294" y2="29.5797" gradientUnits="userSpaceOnUse">
<stop stop-color="#BA3B20"/>
<stop offset="0.21875" stop-color="#D74525"/>
<stop offset="1" stop-color="#FF8565"/>
</linearGradient>
<linearGradient id="paint3_linear_4_591" x1="38.2633" y1="17.3124" x2="46.8294" y2="20.5797" gradientUnits="userSpaceOnUse">
<stop stop-color="#BA3B20"/>
<stop offset="0.244792" stop-color="#D74525"/>
<stop offset="1" stop-color="#FF8565"/>
</linearGradient>
<linearGradient id="paint4_linear_4_591" x1="56.0751" y1="45.8494" x2="63.4398" y2="51.2021" gradientUnits="userSpaceOnUse">
<stop stop-color="#BA3B20"/>
<stop offset="0.25" stop-color="#D74525"/>
<stop offset="1" stop-color="#FF8565"/>
</linearGradient>
<clipPath id="clip0_4_591">
<rect width="80" height="80" fill="white"/>
</clipPath>
</defs>
</svg>
