<svg width="80" height="80" viewBox="0 0 80 80" fill="none" xmlns="http://www.w3.org/2000/svg">
<path d="M12.5041 30.4454H65.1708C65.1708 30.4454 71.7867 29.0057 76.2838 25.8296C76.2838 25.8296 77.2559 18.0672 73.6382 10.5683C73.6382 10.5683 65.3452 7.03962 34.9118 10.5683C34.9118 10.5683 20.0921 8.71305 8.71199 10.7464C8.71199 10.7464 8.30755 9.80023 6.76027 10.2269C6.76027 10.2269 2.19266 19.9707 3.8698 25.388C6.1806 27.8953 9.18692 29.6562 12.5041 30.4454Z" fill="url(#paint0_linear_3_24)"/>
<path d="M71.1151 13.106L71.3933 11.7034C71.3933 11.7034 59.6645 12.3045 50.7185 11.3806L49.4421 12.1598C49.4421 12.1598 34.4702 12.8574 19.6988 11.3732C16.0692 10.774 12.3864 10.5613 8.71199 10.7387C8.71199 10.7387 8.30755 9.79248 6.76027 10.2192C6.76027 10.2192 2.19266 19.9629 3.8698 25.3803C6.17962 27.8903 9.18604 29.6539 12.5041 30.4451H65.1708C65.1708 30.4451 71.7866 29.0054 76.2838 25.8292C75.5845 21.2257 74.2327 16.7454 72.269 12.5234L71.1151 13.106Z" fill="#998D80"/>
<path d="M73.6388 10.5683C73.6388 10.5683 65.3459 7.03962 34.9124 10.5683C34.9124 10.5683 20.0927 8.71305 8.71265 10.7464C12.3868 10.5666 16.0696 10.7768 19.6994 11.3735C34.4635 12.8577 49.4427 12.1527 49.4427 12.1527L50.7191 11.3735C59.6651 12.2974 71.394 11.6963 71.394 11.6963L71.1157 13.0989L72.2697 12.5163C74.2353 16.7453 75.5872 21.2333 76.2844 25.8444C76.2844 25.8444 77.2566 18.0524 73.6388 10.5683Z" fill="#AC9E8F"/>
<path d="M8.71173 10.7463C8.71173 10.7463 8.30729 9.80017 6.76001 10.2269L6.91214 11.507C7.42898 11.09 8.05249 10.8264 8.71173 10.7463Z" fill="#FFE5C5"/>
<path d="M8.71173 10.7463C8.71173 10.7463 8.30729 9.80017 6.76001 10.2269L6.91214 11.507C7.42898 11.09 8.05249 10.8264 8.71173 10.7463Z" fill="#FFE5C5"/>
<path d="M4.90584 22.7201C6.49393 13.2287 8.7128 10.7463 8.7128 10.7463C8.7128 10.7463 8.30836 9.80017 6.76108 10.2269C5.46831 14.2629 4.84169 18.4826 4.90584 22.7201Z" fill="#AC9E8F"/>
<path d="M6.42261 11.0022L6.76026 10.2341C6.76026 10.2341 6.64153 10.5087 6.42261 11.0022Z" fill="url(#paint1_linear_3_24)"/>
<path d="M3.86981 25.3879C6.18061 27.8952 9.18693 29.6561 12.5041 30.4453H65.1708C65.1708 30.4453 71.7867 29.0056 76.2838 25.8295C76.2838 25.8295 68.3507 27.6179 64.1913 28.104L61.3899 27.5251C61.3899 27.5251 46.3735 28.1262 29.9917 28.1819L26.8749 27.258C26.8749 27.258 16.0328 28.2821 9.8066 26.6903C9.8066 26.6903 4.39299 22.1598 8.71571 10.7352C8.71571 10.7352 6.48942 13.2175 4.90875 22.7089C4.8446 18.4714 5.47122 14.2517 6.76399 10.2157L6.42634 10.9838C5.39482 13.3919 2.47466 20.8834 3.86981 25.3879Z" fill="#887F75"/>
<path d="M13.5539 22.813C13.0475 22.5549 12.6234 22.1604 12.3295 21.6739C12.0364 21.1662 11.8821 20.5903 11.8821 20.0041C11.8821 19.4179 12.0364 18.8421 12.3295 18.3344C12.6244 17.8478 13.0482 17.4523 13.5539 17.1916C14.097 16.9147 14.6995 16.7746 15.309 16.7834C15.8571 16.7748 16.4009 16.8823 16.9045 17.0988C17.361 17.3009 17.7592 17.6148 18.0622 18.0116L16.7561 19.1804C16.605 18.9629 16.4044 18.7842 16.171 18.6591C15.9375 18.534 15.6777 18.466 15.4129 18.4606C15.2196 18.4523 15.0268 18.485 14.847 18.5566C14.6673 18.6282 14.5048 18.7372 14.3703 18.8762C14.1161 19.1915 13.9774 19.5843 13.9774 19.9893C13.9774 20.3943 14.1161 20.7871 14.3703 21.1025C14.5046 21.2419 14.667 21.3514 14.8467 21.4237C15.0264 21.4959 15.2194 21.5294 15.4129 21.5217C15.6777 21.5163 15.9375 21.4483 16.171 21.3232C16.4044 21.1981 16.605 21.0194 16.7561 20.8019L18.0622 21.967C17.7592 22.3638 17.361 22.6777 16.9045 22.8798C16.4014 23.0981 15.8573 23.2056 15.309 23.1952C14.7015 23.2134 14.0988 23.0822 13.5539 22.813Z" fill="#DFDFDF"/>
<path d="M23.7651 21.5217V23.0801H18.6594V16.9392H23.6537V18.5013H20.6854V19.2212H23.2827V20.7054H20.6854V21.5142L23.7651 21.5217Z" fill="#DFDFDF"/>
<path d="M30.0512 23.0801L30.0178 20.2787L28.682 22.5235H27.7915L26.4557 20.3751V23.0764H24.5708V16.9392H26.2702L28.2739 20.2119L30.2219 16.9392H31.9213V23.0801H30.0512Z" fill="#DFDFDF"/>
<path d="M38.0431 21.5217V23.0801H32.9375V16.9392H37.9281V18.5013H34.9597V19.2212H37.5571V20.7054H34.9597V21.5142L38.0431 21.5217Z" fill="#DFDFDF"/>
<path d="M44.8971 16.9392V23.0801H43.194L40.8601 20.2787V23.0689H38.8416V16.9392H40.5447L42.8786 19.7295V16.9392H44.8971Z" fill="#DFDFDF"/>
<path d="M47.2303 18.5459H45.4307V16.9392H51.1003V18.5459H49.3118V23.0801H47.2414L47.2303 18.5459Z" fill="#DFDFDF"/>
<path d="M62.7074 20.568C62.8055 20.4472 62.9303 20.3508 63.0719 20.2864C63.2136 20.222 63.3682 20.1914 63.5237 20.1969C63.7355 20.193 63.9441 20.2497 64.1248 20.3602C64.3163 20.4818 64.4673 20.6574 64.559 20.8648C64.6746 21.1262 64.7304 21.4102 64.7222 21.696C64.7213 21.9466 64.6876 22.1961 64.622 22.4381C64.5639 22.6621 64.4673 22.8743 64.3363 23.0651L63.6944 22.7349C63.8002 22.5908 63.8817 22.4304 63.9356 22.26C63.9918 22.081 64.0206 21.8946 64.0209 21.7071C64.0311 21.5323 63.987 21.3587 63.8948 21.2099C63.8576 21.1529 63.8062 21.1065 63.7458 21.0753C63.6853 21.0441 63.6177 21.0291 63.5497 21.0318C63.4796 21.0271 63.4096 21.0424 63.3479 21.0759C63.2861 21.1094 63.2352 21.1597 63.2009 21.221C63.1041 21.423 63.0631 21.6472 63.0822 21.8704V22.7943L61.0488 22.6087V20.4047H61.7167V21.9149L62.4032 21.9705V21.6774C62.3762 21.2838 62.4834 20.8927 62.7074 20.568Z" fill="#DFDFDF"/>
<path d="M64.5 19.1136C64.3438 19.3549 64.1208 19.5457 63.8581 19.6627C63.5403 19.7959 63.1991 19.8645 62.8544 19.8645C62.5098 19.8645 62.1686 19.7959 61.8508 19.6627C61.6591 19.5729 61.4885 19.4435 61.3503 19.2832C61.2121 19.1228 61.1093 18.9351 61.0487 18.7323C60.9881 18.5294 60.9711 18.3161 60.9987 18.1062C61.0262 17.8963 61.0979 17.6946 61.2088 17.5143C61.3651 17.273 61.5881 17.0822 61.8508 16.9652C62.1686 16.832 62.5098 16.7634 62.8544 16.7634C63.1991 16.7634 63.5403 16.832 63.8581 16.9652C64.1208 17.0822 64.3438 17.273 64.5 17.5143C64.6457 17.7556 64.7227 18.0321 64.7227 18.314C64.7227 18.5958 64.6457 18.8723 64.5 19.1136ZM63.732 17.7963C63.4562 17.6717 63.1571 17.6072 62.8544 17.6072C62.5518 17.6072 62.2527 17.6717 61.9769 17.7963C61.8895 17.8511 61.8174 17.9271 61.7675 18.0173C61.7175 18.1075 61.6913 18.209 61.6913 18.3121C61.6913 18.4152 61.7175 18.5167 61.7675 18.6069C61.8174 18.6971 61.8895 18.7731 61.9769 18.8279C62.2527 18.9525 62.5518 19.017 62.8544 19.017C63.1571 19.017 63.4562 18.9525 63.732 18.8279C63.8185 18.7725 63.8898 18.6962 63.9391 18.6061C63.9885 18.516 64.0143 18.4149 64.0143 18.3121C64.0143 18.2093 63.9885 18.1082 63.9391 18.0181C63.8898 17.928 63.8185 17.8517 63.732 17.7963Z" fill="#DFDFDF"/>
<path d="M66.9482 21.7849L67.6903 22.527H68.5548V22.7682H65.2673V22.527H67.3823L65.2673 20.4714V20.1783L66.7515 21.6291L68.5474 20.0818V20.3712L66.9482 21.7849Z" fill="#DFDFDF"/>
<path d="M66.9367 17.221V16.9909H68.1722C68.3126 17.1408 68.419 17.3193 68.4839 17.5141C68.5586 17.7237 68.5963 17.9446 68.5953 18.1671C68.5991 18.4754 68.5237 18.7795 68.3763 19.0502C68.2386 19.3073 68.0317 19.5207 67.7789 19.6662C67.5175 19.8121 67.2231 19.8887 66.9237 19.8887C66.6243 19.8887 66.3299 19.8121 66.0684 19.6662C65.8165 19.5196 65.6099 19.3065 65.471 19.0502C65.3236 18.7781 65.2482 18.4729 65.2521 18.1634C65.2503 17.9354 65.2905 17.709 65.3708 17.4955C65.4433 17.3003 65.5572 17.123 65.7048 16.9761L65.8643 17.1282C65.7314 17.2583 65.6299 17.4169 65.5675 17.592C65.5034 17.773 65.472 17.964 65.4747 18.156C65.4708 18.4229 65.536 18.6862 65.664 18.9204C65.7828 19.1443 65.963 19.3296 66.1834 19.4547C66.4099 19.5825 66.6655 19.6496 66.9255 19.6496C67.1856 19.6496 67.4412 19.5825 67.6676 19.4547C67.8867 19.3266 68.0674 19.1421 68.1908 18.9204C68.3187 18.6862 68.3839 18.4229 68.38 18.156C68.3922 17.8188 68.2859 17.4879 68.0795 17.221H66.9367Z" fill="#DFDFDF"/>
<path d="M12.0067 50.9421H64.6697C64.6697 50.9421 71.2855 49.5024 75.8012 46.3263C75.8012 46.3263 76.7696 38.5639 73.1556 31.065C73.1556 31.065 64.8626 27.5363 34.4254 31.065C34.4254 31.065 19.6057 29.2098 8.22566 31.2431C8.22566 31.2431 7.82121 30.2932 6.27765 30.7199C6.27765 30.7199 1.71003 40.4674 3.38347 45.881C5.69164 48.3867 8.69353 50.1486 12.0067 50.9421Z" fill="url(#paint2_linear_3_24)"/>
<path d="M70.6143 33.6029L70.8963 32.2003C70.8963 32.2003 59.1637 32.7977 50.2214 31.8738L48.9413 32.6567C48.9413 32.6567 33.9621 33.3654 19.198 31.8738C15.5685 31.2748 11.8855 31.0634 8.21126 31.243C8.21126 31.243 7.80681 30.2931 6.26325 30.7198C6.26325 30.7198 1.69563 40.4673 3.36906 45.8809C5.68123 48.3892 8.68863 50.1512 12.0071 50.942H64.6701C64.6701 50.942 71.2859 49.5024 75.8016 46.3262C75.102 41.7223 73.7489 37.2418 71.7831 33.0203L70.6143 33.6029Z" fill="#998D80"/>
<path d="M73.1411 31.065C73.1411 31.065 64.8481 27.5363 34.411 31.065C34.411 31.065 19.5913 29.2098 8.21118 31.2431C11.8854 31.0635 15.5684 31.2749 19.1979 31.8739C33.962 33.3581 48.9413 32.6568 48.9413 32.6568L50.2214 31.8739C59.1637 32.7978 70.8962 32.2004 70.8962 32.2004L70.6142 33.603L71.7682 33.0204C73.734 37.2419 75.0871 41.7224 75.7867 46.3263C75.7867 46.3263 76.7699 38.5639 73.1411 31.065Z" fill="#AC9E8F"/>
<path d="M8.21144 31.243C8.21144 31.243 7.80699 30.2931 6.26343 30.7198L6.41556 32.0037C6.92967 31.5845 7.55266 31.3206 8.21144 31.243Z" fill="#FFE5C5"/>
<path d="M8.21144 31.243C8.21144 31.243 7.80699 30.2931 6.26343 30.7198L6.41556 32.0037C6.92967 31.5845 7.55266 31.3206 8.21144 31.243Z" fill="#FFE5C5"/>
<path d="M4.41505 43.2168C6.00685 33.7216 8.22201 31.243 8.22201 31.243C8.22201 31.243 7.81757 30.2931 6.27401 30.7198C4.98106 34.7572 4.35321 38.9779 4.41505 43.2168Z" fill="#AC9E8F"/>
<path d="M5.92188 31.488L6.26324 30.72C6.26324 30.72 6.12966 31.002 5.92188 31.488Z" fill="url(#paint3_linear_3_24)"/>
<path d="M3.3689 45.8812C5.68106 48.3895 8.68847 50.1515 12.0069 50.9423H64.6699C64.6699 50.9423 71.2858 49.5026 75.8014 46.3265C75.8014 46.3265 67.8647 48.1149 63.7052 48.5973L60.9075 48.0221C60.9075 48.0221 45.8911 48.6232 29.5093 48.6752L26.3925 47.7513C26.3925 47.7513 15.5467 48.7791 9.32424 47.1873C9.32424 47.1873 3.91063 42.6568 8.21109 31.2322C8.21109 31.2322 5.9848 33.7108 4.40413 43.2059C4.34109 38.9673 4.96768 34.7465 6.25937 30.709L5.91801 31.4771C4.89762 33.8889 1.97747 41.3804 3.3689 45.8812Z" fill="#887F75"/>
<path d="M13.0526 43.3096C12.5487 43.0508 12.1272 42.6562 11.8356 42.1705C11.5425 41.6628 11.3882 41.087 11.3882 40.5008C11.3882 39.9146 11.5425 39.3387 11.8356 38.831C12.1282 38.3448 12.551 37.9502 13.0563 37.6919C13.5996 37.4154 14.2019 37.2754 14.8114 37.2838C15.3609 37.2734 15.9062 37.3809 16.4106 37.5992C16.8671 37.8012 17.2653 38.1152 17.5683 38.512L16.2622 39.6808C16.1111 39.4632 15.9105 39.2846 15.6771 39.1595C15.4436 39.0343 15.1838 38.9663 14.919 38.9609C14.7251 38.9523 14.5316 38.9849 14.3513 39.0565C14.1709 39.1281 14.0078 39.2372 13.8726 39.3765C13.621 39.6929 13.484 40.0853 13.484 40.4896C13.484 40.894 13.621 41.2863 13.8726 41.6028C14.0078 41.7421 14.1709 41.8511 14.3513 41.9228C14.5316 41.9944 14.7251 42.027 14.919 42.0184C15.1838 42.013 15.4436 41.9449 15.6771 41.8198C15.9105 41.6947 16.1111 41.5161 16.2622 41.2985L17.5683 42.4673C17.2653 42.8641 16.8671 43.178 16.4106 43.3801C15.9062 43.5984 15.3609 43.7059 14.8114 43.6955C14.2025 43.7114 13.5989 43.579 13.0526 43.3096Z" fill="#DFDFDF"/>
<path d="M23.2675 42.0148V43.5769H18.1619V37.436H23.1525V38.9982H20.1841V39.718H22.7814V41.2022H20.1841V42.0074L23.2675 42.0148Z" fill="#DFDFDF"/>
<path d="M29.5496 43.5769L29.531 40.7792L28.199 43.024H27.2862L25.9541 40.8757V43.5769H24.0803V37.436H25.7834L27.7834 40.7087L29.7314 37.436H31.4345L31.4531 43.5769H29.5496Z" fill="#DFDFDF"/>
<path d="M37.5422 42.0148V43.5769H32.4365V37.436H37.4383V38.9982H34.4699V39.718H37.0672V41.2022H34.4699V42.0074L37.5422 42.0148Z" fill="#DFDFDF"/>
<path d="M44.3958 37.436V43.5769H42.6964L40.3625 40.7866V43.5769H38.344V37.436H40.036L42.3699 40.2263V37.436H44.3958Z" fill="#DFDFDF"/>
<path d="M46.7144 39.0427H44.9333V37.436H50.5993V39.0427H48.7997V43.5769H46.7144V39.0427Z" fill="#DFDFDF"/>
<path d="M62.2092 41.0574C62.3078 40.9373 62.4327 40.8414 62.5742 40.777C62.7157 40.7127 62.8701 40.6817 63.0255 40.6864C63.2377 40.6836 63.4462 40.7415 63.6266 40.8533C63.8169 40.9746 63.9677 41.1487 64.0607 41.3543C64.1751 41.6173 64.2295 41.9024 64.2203 42.1891C64.2197 42.4398 64.186 42.6893 64.1201 42.9312C64.0643 43.1561 63.9675 43.3687 63.8344 43.5583L63.1962 43.2281C63.3008 43.0838 63.381 42.9234 63.4336 42.7531C63.4917 42.5746 63.5205 42.3879 63.519 42.2002C63.5283 42.0272 63.4857 41.8554 63.3965 41.7068C63.3582 41.6494 63.3064 41.6023 63.2455 41.5697C63.1847 41.5372 63.1167 41.5202 63.0477 41.5202C62.9787 41.5202 62.9108 41.5372 62.85 41.5697C62.7891 41.6023 62.7373 41.6494 62.699 41.7068C62.604 41.9106 62.5631 42.1355 62.5802 42.3598V43.2837L60.5469 43.0982V40.8942H61.2185V42.4006L61.9049 42.4563V42.1632C61.8782 41.7708 61.9855 41.3809 62.2092 41.0574Z" fill="#DFDFDF"/>
<path d="M64.0028 39.6102C63.8455 39.8521 63.6212 40.043 63.3572 40.1594C63.0416 40.2975 62.6996 40.3646 62.3553 40.356C62.0098 40.3642 61.6667 40.2971 61.3498 40.1594C61.0879 40.0411 60.8652 39.8506 60.7079 39.6102C60.5623 39.3682 60.4854 39.0912 60.4854 38.8088C60.4854 38.5263 60.5623 38.2493 60.7079 38.0073C60.8652 37.7669 61.0879 37.5764 61.3498 37.4581C61.6667 37.3204 62.0098 37.2533 62.3553 37.2615C62.6996 37.2529 63.0416 37.32 63.3572 37.4581C63.6212 37.5745 63.8455 37.7654 64.0028 38.0073C64.1461 38.2501 64.2216 38.5268 64.2216 38.8088C64.2216 39.0907 64.1461 39.3674 64.0028 39.6102ZM63.231 38.2893C62.9559 38.1647 62.6573 38.1002 62.3553 38.1002C62.0533 38.1002 61.7548 38.1647 61.4796 38.2893C61.3909 38.3435 61.3179 38.42 61.2678 38.5111C61.2177 38.6022 61.1922 38.7048 61.1939 38.8088C61.192 38.9117 61.2175 39.0134 61.2677 39.1033C61.3179 39.1933 61.391 39.2683 61.4796 39.3208C61.7548 39.4454 62.0533 39.5099 62.3553 39.5099C62.6573 39.5099 62.9559 39.4454 63.231 39.3208C63.3196 39.2683 63.3928 39.1933 63.443 39.1033C63.4932 39.0134 63.5186 38.9117 63.5167 38.8088C63.5184 38.7048 63.4929 38.6022 63.4428 38.5111C63.3927 38.42 63.3197 38.3435 63.231 38.2893Z" fill="#DFDFDF"/>
<path d="M66.4468 42.2779L67.2075 43.02H68.072V43.2612H64.7771V43.02H66.8958L64.7771 40.9644V40.6861L66.2613 42.1332L68.0572 40.5859V40.8791L66.4468 42.2779Z" fill="#DFDFDF"/>
<path d="M66.4401 37.7178V37.484H67.672C67.8144 37.6345 67.922 37.8144 67.9874 38.0109C68.0609 38.2194 68.0973 38.4392 68.095 38.6603C68.1 38.9682 68.0259 39.2723 67.8798 39.5434C67.741 39.7996 67.5343 40.0127 67.2824 40.1593C67.0203 40.3052 66.7253 40.3818 66.4253 40.3818C66.1253 40.3818 65.8303 40.3052 65.5682 40.1593C65.3163 40.0127 65.1096 39.7996 64.9708 39.5434C64.8263 39.2703 64.7523 38.9655 64.7556 38.6565C64.7523 38.4299 64.7913 38.2047 64.8706 37.9924C64.9424 37.7959 65.0579 37.6183 65.2082 37.4729L65.3678 37.6213C65.235 37.7522 65.1325 37.9105 65.0672 38.0851C65.0059 38.268 64.9758 38.4599 64.9782 38.6528C64.9748 38.9192 65.0386 39.1821 65.1637 39.4172C65.2858 39.6387 65.4652 39.8232 65.6832 39.9515C65.9094 40.0797 66.1653 40.1463 66.4253 40.1445C66.6859 40.1475 66.9425 40.0795 67.1674 39.9478C67.3853 39.8195 67.5647 39.635 67.6869 39.4135C67.8159 39.1809 67.8824 38.9188 67.8798 38.6528C67.8939 38.3147 67.7859 37.9829 67.5755 37.7178H66.4401Z" fill="#DFDFDF"/>
<path d="M14.0035 71.0604H66.6665C66.6665 71.0604 73.2823 69.6207 77.798 66.4445C77.798 66.4445 78.7664 58.6822 75.1524 51.1833C75.1524 51.1833 66.8594 47.6546 36.4223 51.1833C36.4223 51.1833 21.6026 49.328 10.2225 51.3614C10.2225 51.3614 9.81804 50.4115 8.27448 50.8419C8.27448 50.8419 3.70686 60.5857 5.38029 65.9993C7.68846 68.505 10.6904 70.2669 14.0035 71.0604Z" fill="url(#paint4_linear_3_24)"/>
<path d="M72.6111 53.7212L72.8931 52.3187C72.8931 52.3187 61.1606 52.9161 52.2183 51.9959L50.9382 52.7751C50.9382 52.7751 35.9589 53.4838 21.1948 51.9959C17.5653 51.3967 13.8825 51.184 10.2081 51.3614C10.2081 51.3614 9.80364 50.4115 8.26007 50.8419C8.26007 50.8419 3.69246 60.5856 5.36589 65.9993C7.67805 68.5075 10.6855 70.2696 14.0039 71.0604H66.6669C66.6669 71.0604 73.2827 69.6207 77.7984 66.4445C77.0989 61.8406 75.7457 57.3602 73.7799 53.1387L72.6111 53.7212Z" fill="#998D80"/>
<path d="M75.1372 51.1833C75.1372 51.1833 66.8442 47.6546 36.4071 51.1833C36.4071 51.1833 21.5874 49.328 10.2073 51.3614C13.8817 51.184 17.5645 51.3967 21.194 51.9959C35.9581 53.4801 50.9374 52.7751 50.9374 52.7751L52.2175 51.9959C61.1598 52.9161 72.8923 52.3187 72.8923 52.3187L72.6103 53.7213L73.7643 53.1387C75.7301 57.3602 77.0832 61.8407 77.7828 66.4445C77.7828 66.4445 78.7512 58.6822 75.1372 51.1833Z" fill="#AC9E8F"/>
<path d="M10.2075 51.3614C10.2075 51.3614 9.80309 50.4115 8.25952 50.8419L8.41165 52.122C8.92693 51.7048 9.54933 51.4412 10.2075 51.3614Z" fill="#FFE5C5"/>
<path d="M10.2075 51.3614C10.2075 51.3614 9.80309 50.4115 8.25952 50.8419L8.41165 52.122C8.92693 51.7048 9.54933 51.4412 10.2075 51.3614Z" fill="#FFE5C5"/>
<path d="M6.40066 63.3202C7.99246 53.8251 10.2076 51.3465 10.2076 51.3465C10.2076 51.3465 9.80318 50.3966 8.25962 50.827C6.96655 54.863 6.3387 59.0826 6.40066 63.3202Z" fill="#AC9E8F"/>
<path d="M7.91846 51.606L8.25982 50.8417C8.25982 50.8417 8.12624 51.12 7.91846 51.606Z" fill="url(#paint5_linear_3_24)"/>
<path d="M5.36509 65.9994C7.67725 68.5076 10.6847 70.2697 14.0031 71.0605H66.6661C66.6661 71.0605 73.2819 69.6208 77.7976 66.4446C77.7976 66.4446 69.8609 68.2331 65.7014 68.7192L62.8889 68.144C62.8889 68.144 47.8725 68.7451 31.4907 68.8008L28.3739 67.8732C28.3739 67.8732 17.5281 68.901 11.3056 67.3092C11.3056 67.3092 5.89198 62.7787 10.1924 51.3541C10.1924 51.3541 7.96615 53.8327 6.38548 63.3278C6.32232 59.0904 6.94892 54.8708 8.24072 50.8346L7.89936 51.599C6.89381 54.0071 3.97365 61.4985 5.36509 65.9994Z" fill="#887F75"/>
<path d="M15.0493 63.428C14.544 63.1697 14.1211 62.7751 13.8285 62.2889C13.5354 61.7812 13.3811 61.2054 13.3811 60.6192C13.3811 60.033 13.5354 59.4571 13.8285 58.9495C14.1211 58.4632 14.544 58.0686 15.0493 57.8103C15.5925 57.5339 16.1948 57.3938 16.8043 57.4022C17.3538 57.3918 17.8991 57.4993 18.4035 57.7176C18.86 57.9196 19.2582 58.2336 19.5612 58.6303L18.2551 59.7992C18.104 59.5816 17.9035 59.403 17.67 59.2779C17.4365 59.1528 17.1767 59.0847 16.9119 59.0793C16.718 59.0707 16.5245 59.1033 16.3442 59.1749C16.1638 59.2466 16.0007 59.3556 15.8656 59.4949C15.6139 59.8114 15.4769 60.2037 15.4769 60.608C15.4769 61.0124 15.6139 61.4047 15.8656 61.7212C16.0007 61.8605 16.1638 61.9695 16.3442 62.0412C16.5245 62.1128 16.718 62.1454 16.9119 62.1368C17.1767 62.1314 17.4365 62.0633 17.67 61.9382C17.9035 61.8131 18.104 61.6345 18.2551 61.4169L19.5612 62.5857C19.2582 62.9825 18.86 63.2965 18.4035 63.4985C17.8991 63.7168 17.3538 63.8243 16.8043 63.8139C16.1967 63.8292 15.5944 63.6968 15.0493 63.428Z" fill="#DFDFDF"/>
<path d="M25.2643 62.1331V63.6915H20.1587V57.5543H25.1493V59.1164H22.1809V59.8363H24.7783V61.3205H22.1809V62.1257L25.2643 62.1331Z" fill="#DFDFDF"/>
<path d="M31.546 63.6915L31.5274 60.8938L30.1953 63.1201H29.2751L27.9431 60.9717V63.6915H26.0544V57.5543H27.7576L29.7575 60.827L31.7055 57.5543H33.4086L33.4272 63.6952L31.546 63.6915Z" fill="#DFDFDF"/>
<path d="M39.5387 62.1331V63.6915H34.4331V57.5543H39.4274V59.1164H36.459V59.8363H39.0564V61.3205H36.459V62.1257L39.5387 62.1331Z" fill="#DFDFDF"/>
<path d="M46.3926 57.5543V63.6915H44.6932L42.3593 60.9012V63.6915H40.3408V57.5543H42.0402L44.3741 60.3446V57.5543H46.3926Z" fill="#DFDFDF"/>
<path d="M48.7258 59.161H46.9299V57.5543H52.5959V59.161H50.7963V63.6915H48.7258V59.161Z" fill="#DFDFDF"/>
<path d="M64.2058 61.1792C64.3044 61.0591 64.4293 60.9632 64.5708 60.8989C64.7123 60.8345 64.8667 60.8035 65.0221 60.8082C65.2343 60.8054 65.4428 60.8633 65.6232 60.9752C65.8126 61.0974 65.9633 61.2712 66.0573 61.4761C66.1716 61.7391 66.2261 62.0243 66.2168 62.3109C66.2165 62.5617 66.1828 62.8112 66.1167 63.053C66.0614 63.2781 65.9645 63.4908 65.831 63.6801L65.1927 63.3499C65.2981 63.206 65.3783 63.0455 65.4302 62.8749C65.4883 62.6977 65.5171 62.5123 65.5156 62.3258C65.5254 62.1515 65.4828 61.9783 65.3931 61.8286C65.3561 61.7711 65.3049 61.7242 65.2445 61.6924C65.184 61.6605 65.1163 61.6448 65.048 61.6468C64.9744 61.6376 64.8996 61.6507 64.8335 61.6844C64.7673 61.7181 64.7128 61.771 64.677 61.836C64.5825 62.04 64.5416 62.2648 64.5583 62.4891V63.413L62.5249 63.2274V61.0234H63.1965V62.5299L63.8829 62.5855V62.2924C63.8599 61.8953 63.9739 61.5024 64.2058 61.1792Z" fill="#DFDFDF"/>
<path d="M66.0088 59.7286C65.8515 59.9705 65.6272 60.1614 65.3631 60.2778C65.0482 60.4177 64.7058 60.4849 64.3613 60.4744C64.0157 60.4844 63.6722 60.4172 63.3558 60.2778C63.0939 60.1595 62.8712 59.969 62.7138 59.7286C62.5682 59.4873 62.4912 59.2109 62.4912 58.929C62.4912 58.6472 62.5682 58.3707 62.7138 58.1294C62.871 57.8879 63.0936 57.6962 63.3558 57.5765C63.6727 57.4388 64.0158 57.3717 64.3613 57.3799C64.7056 57.3713 65.0476 57.4384 65.3631 57.5765C65.6265 57.694 65.8505 57.8846 66.0088 58.1257C66.1521 58.3678 66.2277 58.644 66.2277 58.9253C66.2277 59.2066 66.1521 59.4828 66.0088 59.7249V59.7286ZM65.237 58.4077C64.9613 58.2854 64.6629 58.2222 64.3613 58.2222C64.0597 58.2222 63.7614 58.2854 63.4856 58.4077C63.3969 58.4619 63.3239 58.5384 63.2738 58.6295C63.2237 58.7206 63.1982 58.8232 63.1999 58.9272C63.1981 59.0306 63.2236 59.1328 63.2737 59.2233C63.3239 59.3138 63.397 59.3896 63.4856 59.4429C63.7614 59.5652 64.0597 59.6284 64.3613 59.6284C64.6629 59.6284 64.9613 59.5652 65.237 59.4429C65.3257 59.3896 65.3987 59.3138 65.4489 59.2233C65.499 59.1328 65.5245 59.0306 65.5227 58.9272C65.5232 58.8221 65.4961 58.7188 65.444 58.6276C65.3919 58.5364 65.3166 58.4605 65.2259 58.4077H65.237Z" fill="#DFDFDF"/>
<path d="M68.4436 62.3963L69.2043 63.1384H70.0688V63.3796H66.7739V63.1384H68.8926L66.7739 61.0939V60.8045L68.2581 62.2516L70.054 60.7043V60.9975L68.4436 62.3963Z" fill="#DFDFDF"/>
<path d="M68.4353 57.8362V57.6062H69.6672C69.8095 57.7553 69.9171 57.9339 69.9826 58.1293C70.0561 58.3378 70.0925 58.5576 70.0902 58.7787C70.0957 59.0867 70.0215 59.3908 69.875 59.6618C69.7361 59.918 69.5294 60.1311 69.2776 60.2777C69.0162 60.426 68.7209 60.504 68.4204 60.504C68.12 60.504 67.8246 60.426 67.5633 60.2777C67.3114 60.1311 67.1048 59.918 66.9659 59.6618C66.8439 59.4239 66.772 59.1635 66.7548 58.8967C66.7376 58.6299 66.7753 58.3624 66.8657 58.1108C66.9386 57.9148 67.0539 57.7374 67.2034 57.5913L67.3629 57.7397C67.2302 57.8706 67.1276 58.0289 67.0624 58.2035C67.001 58.3864 66.9709 58.5783 66.9733 58.7712C66.97 59.0376 67.0338 59.3005 67.1589 59.5356C67.281 59.7571 67.4604 59.9416 67.6783 60.0699C67.9046 60.1984 68.1603 60.2659 68.4204 60.2659C68.6806 60.2659 68.9363 60.1984 69.1625 60.0699C69.3805 59.9416 69.5599 59.7571 69.682 59.5356C69.8111 59.303 69.8776 59.0409 69.875 58.775C69.8884 58.437 69.7804 58.1053 69.5707 57.8399L68.4353 57.8362Z" fill="#DFDFDF"/>
<path d="M41.4497 48.7345C41.4497 49.0425 41.4757 49.3282 41.4905 49.5916C41.4757 49.2948 41.4608 49.0017 41.4497 48.7345Z" fill="#FFDEB3"/>
<path d="M41.4497 48.7345C41.4497 49.0425 41.4757 49.3282 41.4905 49.5916C41.4757 49.2948 41.4608 49.0017 41.4497 48.7345Z" fill="url(#paint6_linear_3_24)"/>
<path d="M41.4985 49.8141C41.4985 49.9885 41.5171 50.1555 41.5208 50.3113L41.4985 49.8141Z" fill="#FFDEB3"/>
<path d="M41.4985 49.8141C41.4985 49.9885 41.5171 50.1555 41.5208 50.3113L41.4985 49.8141Z" fill="url(#paint7_linear_3_24)"/>
<path d="M41.4355 48.3634C41.4355 48.4302 41.4355 48.5007 41.4355 48.5749C41.4393 48.5044 41.4355 48.4339 41.4355 48.3634Z" fill="#FFDEB3"/>
<path d="M41.4355 48.3634C41.4355 48.4302 41.4355 48.5007 41.4355 48.5749C41.4393 48.5044 41.4355 48.4339 41.4355 48.3634Z" fill="url(#paint8_linear_3_24)"/>
<path d="M41.3943 47.4839C41.3943 47.7956 41.4203 48.085 41.4351 48.3633C41.4128 47.892 41.398 47.5544 41.3943 47.4839Z" fill="#FFDEB3"/>
<path d="M41.3943 47.4839C41.3943 47.7956 41.4203 48.085 41.4351 48.3633C41.4128 47.892 41.398 47.5544 41.3943 47.4839Z" fill="url(#paint9_linear_3_24)"/>
<path d="M41.4417 48.5751V48.7049C41.4454 48.6604 41.4454 48.6159 41.4417 48.5751Z" fill="#FFDEB3"/>
<path d="M41.4417 48.5751V48.7049C41.4454 48.6604 41.4454 48.6159 41.4417 48.5751Z" fill="url(#paint10_linear_3_24)"/>
<path d="M41.4902 49.5913C41.4902 49.6655 41.4902 49.7397 41.4902 49.8139C41.4939 49.7434 41.4939 49.6692 41.4902 49.5913Z" fill="#FFDEB3"/>
<path d="M41.4902 49.5913C41.4902 49.6655 41.4902 49.7397 41.4902 49.8139C41.4939 49.7434 41.4939 49.6692 41.4902 49.5913Z" fill="url(#paint11_linear_3_24)"/>
<path d="M41.6089 52.2297C41.6089 52.2928 41.6089 52.3448 41.6089 52.3856C41.6126 52.3448 41.6126 52.2928 41.6089 52.2297Z" fill="#FFDEB3"/>
<path d="M41.6089 52.2297C41.6089 52.2928 41.6089 52.3448 41.6089 52.3856C41.6126 52.3448 41.6126 52.2928 41.6089 52.2297Z" fill="url(#paint12_linear_3_24)"/>
<path d="M41.5388 50.6526C41.5388 50.827 41.5388 50.994 41.5611 51.1572C41.5537 51.0014 41.5462 50.8344 41.5388 50.6526Z" fill="#FFDEB3"/>
<path d="M41.5388 50.6526C41.5388 50.827 41.5388 50.994 41.5611 51.1572C41.5537 51.0014 41.5462 50.8344 41.5388 50.6526Z" fill="url(#paint13_linear_3_24)"/>
<path d="M41.5603 51.1573C41.5603 51.5284 41.59 51.8067 41.5974 52.0145C41.59 51.7881 41.5751 51.4913 41.5603 51.1573Z" fill="#FFDEB3"/>
<path d="M41.5603 51.1573C41.5603 51.5284 41.59 51.8067 41.5974 52.0145C41.59 51.7881 41.5751 51.4913 41.5603 51.1573Z" fill="url(#paint14_linear_3_24)"/>
<path d="M41.5974 52.0146V52.2299C41.6048 52.189 41.6011 52.0963 41.5974 52.0146Z" fill="#FFDEB3"/>
<path d="M41.5974 52.0146V52.2299C41.6048 52.189 41.6011 52.0963 41.5974 52.0146Z" fill="url(#paint15_linear_3_24)"/>
<path d="M17.4392 65.6468C17.4392 65.6468 24.786 63.3203 27.2609 65.1756C27.2609 65.1756 20.5523 67.298 17.4392 65.6468Z" fill="#887F75"/>
<path d="M33.0531 54.5969H31.0569V55.595H33.0531V54.5969Z" fill="#DFDFDF"/>
<path d="M34.0509 55.595H33.0527V56.5931H34.0509V55.595Z" fill="#DFDFDF"/>
<path d="M30.0589 57.5913H29.0608V58.5894H30.0589V57.5913Z" fill="#DFDFDF"/>
<path d="M35.0494 56.5931H34.0513V57.5913H35.0494V56.5931Z" fill="#DFDFDF"/>
<path d="M33.0525 58.5894V59.5876H32.0544V58.5894H31.0562H30.0581V59.5876H31.0562V60.5857H32.0544V61.5838H33.0525V60.5857H34.0506V59.5876H35.0487H36.0468V57.5913H35.0487V58.5894H33.0525Z" fill="#DFDFDF"/>
<path d="M30.0589 59.5876H29.0608V60.5858V61.5839H30.0589H31.057V60.5858H30.0589V59.5876Z" fill="#DFDFDF"/>
<path d="M35.0494 61.5838H36.0475V60.5857H35.0494H34.0513V61.5838H35.0494Z" fill="#DFDFDF"/>
<path d="M35.0494 56.5968H36.0475V54.6006H35.0494H34.0513V55.5987H35.0494V56.5968Z" fill="#DFDFDF"/>
<path d="M32.0552 57.5912V58.5894H33.0533V56.5968H32.0552H31.057V55.5987H30.0589V54.6006H29.0608V55.5987V56.5968H30.0589V57.5912H31.057H32.0552Z" fill="#DFDFDF"/>
<defs>
<linearGradient id="paint0_linear_3_24" x1="29.8915" y1="46.2298" x2="57.6608" y2="-21.1787" gradientUnits="userSpaceOnUse">
<stop offset="0.14" stop-color="#CD8E65"/>
<stop offset="0.65" stop-color="#F3D09C"/>
</linearGradient>
<linearGradient id="paint1_linear_3_24" x1="-2.57159" y1="32.8534" x2="25.198" y2="-34.5515" gradientUnits="userSpaceOnUse">
<stop offset="0.14" stop-color="#CD8E65"/>
<stop offset="0.65" stop-color="#F3D09C"/>
</linearGradient>
<linearGradient id="paint2_linear_3_24" x1="29.3903" y1="66.7266" x2="57.1633" y2="-0.681969" gradientUnits="userSpaceOnUse">
<stop offset="0.14" stop-color="#CD8E65"/>
<stop offset="0.65" stop-color="#F3D09C"/>
</linearGradient>
<linearGradient id="paint3_linear_3_24" x1="-3.07242" y1="53.3503" x2="24.697" y2="-14.0585" gradientUnits="userSpaceOnUse">
<stop offset="0.14" stop-color="#CD8E65"/>
<stop offset="0.65" stop-color="#F3D09C"/>
</linearGradient>
<linearGradient id="paint4_linear_3_24" x1="31.3871" y1="86.8448" x2="59.1601" y2="19.4363" gradientUnits="userSpaceOnUse">
<stop offset="0.14" stop-color="#CD8E65"/>
<stop offset="0.65" stop-color="#F3D09C"/>
</linearGradient>
<linearGradient id="paint5_linear_3_24" x1="-1.07576" y1="73.4682" x2="26.6936" y2="6.05981" gradientUnits="userSpaceOnUse">
<stop offset="0.14" stop-color="#CD8E65"/>
<stop offset="0.65" stop-color="#F3D09C"/>
</linearGradient>
<linearGradient id="paint6_linear_3_24" x1="32.1846" y1="76.5112" x2="51.9688" y2="18.2379" gradientUnits="userSpaceOnUse">
<stop stop-color="#CD8E65"/>
<stop offset="1" stop-color="#F3D09C"/>
</linearGradient>
<linearGradient id="paint7_linear_3_24" x1="32.4972" y1="76.6186" x2="52.2821" y2="18.3422" gradientUnits="userSpaceOnUse">
<stop stop-color="#CD8E65"/>
<stop offset="1" stop-color="#F3D09C"/>
</linearGradient>
<linearGradient id="paint8_linear_3_24" x1="31.9441" y1="76.4373" x2="51.7326" y2="18.1486" gradientUnits="userSpaceOnUse">
<stop stop-color="#CD8E65"/>
<stop offset="1" stop-color="#F3D09C"/>
</linearGradient>
<linearGradient id="paint9_linear_3_24" x1="31.7581" y1="76.3663" x2="51.5423" y2="18.093" gradientUnits="userSpaceOnUse">
<stop stop-color="#CD8E65"/>
<stop offset="1" stop-color="#F3D09C"/>
</linearGradient>
<linearGradient id="paint10_linear_3_24" x1="32.0059" y1="76.4463" x2="51.784" y2="18.18" gradientUnits="userSpaceOnUse">
<stop stop-color="#CD8E65"/>
<stop offset="1" stop-color="#F3D09C"/>
</linearGradient>
<linearGradient id="paint11_linear_3_24" x1="32.3698" y1="76.5743" x2="52.1546" y2="18.3005" gradientUnits="userSpaceOnUse">
<stop stop-color="#CD8E65"/>
<stop offset="1" stop-color="#F3D09C"/>
</linearGradient>
<linearGradient id="paint12_linear_3_24" x1="33.2677" y1="76.883" x2="53.0532" y2="18.6046" gradientUnits="userSpaceOnUse">
<stop stop-color="#CD8E65"/>
<stop offset="1" stop-color="#F3D09C"/>
</linearGradient>
<linearGradient id="paint13_linear_3_24" x1="32.7861" y1="76.7191" x2="52.5715" y2="18.4383" gradientUnits="userSpaceOnUse">
<stop stop-color="#CD8E65"/>
<stop offset="1" stop-color="#F3D09C"/>
</linearGradient>
<linearGradient id="paint14_linear_3_24" x1="33.0182" y1="76.7968" x2="52.8016" y2="18.5191" gradientUnits="userSpaceOnUse">
<stop stop-color="#CD8E65"/>
<stop offset="1" stop-color="#F3D09C"/>
</linearGradient>
<linearGradient id="paint15_linear_3_24" x1="33.2043" y1="76.8595" x2="52.9878" y2="18.5836" gradientUnits="userSpaceOnUse">
<stop stop-color="#CD8E65"/>
<stop offset="1" stop-color="#F3D09C"/>
</linearGradient>
</defs>
</svg>
