<svg width="15" height="21" viewBox="0 0 15 21" fill="none" xmlns="http://www.w3.org/2000/svg">
<path d="M1.59507 20.4849H12.8584C13.5773 20.4849 14.1624 19.8999 14.1624 19.1808V4.19364C14.1624 3.47455 13.5773 2.88942 12.8584 2.88942H10.9788C10.9554 2.37128 10.5301 1.95592 10.0062 1.95592H9.14316C9.16535 0.865133 8.28286 0 7.22671 0C6.16883 0 5.28811 0.866958 5.31029 1.95592H4.4473C3.92337 1.95592 3.49798 2.37128 3.47462 2.88942H1.59507C0.876146 2.88942 0.291016 3.47455 0.291016 4.19364V19.1808C0.291016 19.8999 0.876146 20.4849 1.59507 20.4849ZM7.22671 0.640152C7.93629 0.640152 8.52305 1.22368 8.50452 1.95592H5.9489C5.93037 1.22368 6.51717 0.640152 7.22671 0.640152ZM4.11035 2.93305C4.11035 2.74721 4.26165 2.5961 4.4473 2.5961C5.68238 2.5961 8.65607 2.5961 10.0061 2.5961C10.1918 2.5961 10.3431 2.74724 10.3431 2.93305V3.48412C10.3431 3.66996 10.1918 3.82107 10.0061 3.82107H4.4473C4.26162 3.82107 4.11035 3.66993 4.11035 3.48412V2.93305ZM0.931168 4.19364C0.931168 3.82747 1.22906 3.52957 1.59507 3.52957H3.47478C3.49911 4.04682 3.92397 4.46119 4.4473 4.46119H10.0061C10.5294 4.46119 10.9543 4.04682 10.9786 3.52957H12.8584C13.2244 3.52957 13.5223 3.82747 13.5223 4.19364V19.1808C13.5223 19.5468 13.2244 19.8447 12.8584 19.8447H1.59507C1.22903 19.8447 0.931168 19.5468 0.931168 19.1808V4.19364Z" fill="black"/>
<path d="M2.42762 9.1376H5.44616C5.53463 9.1376 5.60619 9.06604 5.60619 8.97757V5.95887C5.60619 5.8704 5.53463 5.79883 5.44616 5.79883H2.42762C2.33915 5.79883 2.26758 5.8704 2.26758 5.95887V8.97757C2.26758 9.06604 2.33918 9.1376 2.42762 9.1376ZM2.58765 6.11894H5.28612V8.81756H2.58765V6.11894ZM7.14998 6.93865H12.0255C12.114 6.93865 12.1855 6.86708 12.1855 6.77861C12.1855 6.69014 12.114 6.61857 12.0255 6.61857H7.14998C7.06152 6.61857 6.98995 6.69014 6.98995 6.77861C6.98995 6.86708 7.06155 6.93865 7.14998 6.93865ZM7.14998 8.31789H9.60337C9.69184 8.31789 9.76341 8.24632 9.76341 8.15785C9.76341 8.06938 9.69184 7.99781 9.60337 7.99781H7.14998C7.06152 7.99781 6.98995 8.06938 6.98995 8.15785C6.98995 8.24632 7.06155 8.31789 7.14998 8.31789ZM2.42762 13.8225H5.44616C5.53463 13.8225 5.60619 13.7509 5.60619 13.6625V10.6438C5.60619 10.5553 5.53463 10.4837 5.44616 10.4837H2.42762C2.33915 10.4837 2.26758 10.5553 2.26758 10.6438V13.6625C2.26758 13.7509 2.33918 13.8225 2.42762 13.8225ZM2.58765 10.8038H5.28612V13.5024H2.58765V10.8038ZM7.14998 11.6235H12.0255C12.114 11.6235 12.1855 11.5519 12.1855 11.4635C12.1855 11.375 12.114 11.3034 12.0255 11.3034H7.14998C7.06152 11.3034 6.98995 11.375 6.98995 11.4635C6.98995 11.5519 7.06155 11.6235 7.14998 11.6235ZM7.14998 13.0027H9.60337C9.69184 13.0027 9.76341 12.9312 9.76341 12.8427C9.76341 12.7542 9.69184 12.6827 9.60337 12.6827H7.14998C7.06152 12.6827 6.98995 12.7542 6.98995 12.8427C6.98995 12.9312 7.06155 13.0027 7.14998 13.0027ZM2.42762 18.5083H5.44616C5.53463 18.5083 5.60619 18.4367 5.60619 18.3482V15.3295C5.60619 15.2411 5.53463 15.1695 5.44616 15.1695H2.42762C2.33915 15.1695 2.26758 15.2411 2.26758 15.3295V18.3482C2.26758 18.4367 2.33918 18.5083 2.42762 18.5083ZM2.58765 15.4896H5.28612V18.1882H2.58765V15.4896ZM7.14998 16.3095H12.0255C12.114 16.3095 12.1855 16.2379 12.1855 16.1494C12.1855 16.061 12.114 15.9894 12.0255 15.9894H7.14998C7.06152 15.9894 6.98995 16.061 6.98995 16.1494C6.98995 16.2379 7.06155 16.3095 7.14998 16.3095ZM7.14998 17.6886H9.60337C9.69184 17.6886 9.76341 17.617 9.76341 17.5285C9.76341 17.4401 9.69184 17.3685 9.60337 17.3685H7.14998C7.06152 17.3685 6.98995 17.4401 6.98995 17.5285C6.98995 17.617 7.06155 17.6886 7.14998 17.6886Z" fill="black"/>
<g clip-path="url(#clip0_382_705)">
<path d="M3.79274 8.09531C3.75373 8.09531 3.71472 8.08053 3.6848 8.05061L3.10417 7.46999C3.0447 7.41052 3.0447 7.31394 3.10417 7.25448C3.16363 7.19501 3.26021 7.19501 3.31968 7.25448L3.79274 7.72754L4.73848 6.78141C4.79795 6.72195 4.89453 6.72195 4.95399 6.78141C5.01346 6.84088 5.01346 6.93746 4.95399 6.99692L3.90031 8.05061C3.87076 8.08016 3.83175 8.09531 3.79274 8.09531Z" fill="#231F20"/>
</g>
<g clip-path="url(#clip1_382_705)">
<path d="M3.79274 12.8814C3.75373 12.8814 3.71472 12.8667 3.6848 12.8367L3.10417 12.2561C3.0447 12.1967 3.0447 12.1001 3.10417 12.0406C3.16363 11.9811 3.26021 11.9811 3.31968 12.0406L3.79274 12.5137L4.73848 11.5675C4.79795 11.5081 4.89453 11.5081 4.95399 11.5675C5.01346 11.627 5.01346 11.7236 4.95399 11.7831L3.90031 12.8367C3.87076 12.8663 3.83175 12.8814 3.79274 12.8814Z" fill="#231F20"/>
</g>
<g clip-path="url(#clip2_382_705)">
<path d="M3.79274 17.3788C3.75373 17.3788 3.71472 17.364 3.6848 17.3341L3.10417 16.7534C3.0447 16.694 3.0447 16.5974 3.10417 16.5379C3.16363 16.4785 3.26021 16.4785 3.31968 16.5379L3.79274 17.011L4.73848 16.0649C4.79795 16.0054 4.89453 16.0054 4.95399 16.0649C5.01346 16.1243 5.01346 16.2209 4.95399 16.2804L3.90031 17.3341C3.87076 17.3636 3.83175 17.3788 3.79274 17.3788Z" fill="#231F20"/>
</g>
<circle cx="7.21974" cy="1.37379" r="0.323252" fill="black"/>
<defs>
<clipPath id="clip0_382_705">
<rect width="1.93921" height="1.93921" fill="white" transform="translate(3.05957 6.44629)"/>
</clipPath>
<clipPath id="clip1_382_705">
<rect width="1.93921" height="1.93921" fill="white" transform="translate(3.05957 11.2327)"/>
</clipPath>
<clipPath id="clip2_382_705">
<rect width="1.93921" height="1.93921" fill="white" transform="translate(3.05957 15.73)"/>
</clipPath>
</defs>
</svg>
