<svg width="20" height="20" viewBox="0 0 20 20" fill="none" xmlns="http://www.w3.org/2000/svg">
<path d="M17.3012 3.56143C18.0994 3.49653 18.9538 3.97893 18.9538 5.01507H15.9363V4.86797C16.0033 4.04813 16.6328 3.61333 17.3012 3.56143Z" stroke="black" stroke-width="0.33353" stroke-miterlimit="10" stroke-linecap="round" stroke-linejoin="round"/>
<path d="M14.5953 17.2868C14.5953 17.2868 4.28581 17.33 3.39241 17.2868C2.49905 17.2435 2.11401 16.0732 2.11401 16.0732L4.86118 16.097L13.4964 16.1706C13.4943 16.1706 13.4943 17.0964 14.5953 17.2868Z" stroke="black" stroke-width="0.33353" stroke-miterlimit="10" stroke-linecap="round" stroke-linejoin="round"/>
<path d="M13.5344 16.2206C13.5344 16.2206 13.5344 17.1504 14.6365 17.3416C15.8836 17.3416 15.9767 16.9962 15.9767 16.0642V5.01766H15.9702C15.9702 4.9677 15.9724 4.91773 15.9767 4.86996C16.0439 4.0488 16.6739 3.61213 17.3429 3.55783V3.55566" stroke="black" stroke-width="0.33353" stroke-miterlimit="10" stroke-linecap="round" stroke-linejoin="round"/>
<path d="M17.3011 3.56144C18.0993 3.49654 18.9538 3.9789 18.9538 5.01507H15.9362H15.9297C15.9297 4.9653 15.9319 4.91554 15.9362 4.86797C16.0033 4.04814 16.6327 3.61334 17.3011 3.56144Z" stroke="black" stroke-width="0.33353" stroke-miterlimit="2.6131" stroke-linecap="round" stroke-linejoin="round"/>
<path d="M17.3077 3.55957H17.3012H11.7095" stroke="black" stroke-width="0.33353" stroke-miterlimit="2.6131" stroke-linecap="round" stroke-linejoin="round"/>
<path d="M11.6729 6.66895H14.1188" stroke="black" stroke-width="0.33353" stroke-miterlimit="2.6131" stroke-linecap="round" stroke-linejoin="round"/>
<path d="M11.5618 9.00391H14.4524" stroke="black" stroke-width="0.33353" stroke-miterlimit="2.6131" stroke-linecap="round" stroke-linejoin="round"/>
<path d="M14.6204 11.4053H15.2585" stroke="black" stroke-width="0.33353" stroke-miterlimit="2.6131" stroke-linecap="round" stroke-linejoin="round"/>
<path d="M14.7676 13.7783H15.4078" stroke="black" stroke-width="0.33353" stroke-miterlimit="2.6131" stroke-linecap="round" stroke-linejoin="round"/>
<path d="M12.5102 13.4171C12.439 13.2981 12.3445 13.2047 12.2256 13.1369C12.1066 13.0691 11.9443 12.9979 11.7353 12.9223C11.5452 12.8512 11.4218 12.7934 11.364 12.7456C11.3062 12.6978 11.2784 12.631 11.2784 12.5421C11.2784 12.4565 11.3084 12.382 11.3684 12.3209C11.4273 12.2597 11.5074 12.2286 11.6063 12.2286C11.8031 12.2286 11.9499 12.3653 12.0433 12.6377L12.5258 12.4387C12.4113 12.0418 12.1567 11.8195 11.7642 11.7716V11.4492H11.4129V11.7716C11.1538 11.8083 10.9626 11.9095 10.8425 12.0718C10.7214 12.2364 10.6602 12.4209 10.6602 12.6277C10.6602 12.7834 10.6947 12.9212 10.7625 13.038C10.8292 13.1569 10.9181 13.2481 11.026 13.3137C11.1361 13.3793 11.2873 13.446 11.4796 13.5127C11.6942 13.5883 11.832 13.6505 11.8943 13.7006C11.9565 13.7495 11.9877 13.8217 11.9877 13.9185C11.9877 14.0107 11.9565 14.0908 11.8943 14.1553C11.832 14.2209 11.7342 14.2531 11.603 14.2531C11.3206 14.2531 11.1538 14.1008 11.1038 13.7951L10.5613 13.9363C10.6691 14.4232 10.9537 14.69 11.4129 14.7356V15.1536H11.7642V14.7345C12.0399 14.7045 12.25 14.6089 12.3968 14.4454C12.5424 14.282 12.6158 14.0786 12.6158 13.834C12.6169 13.6772 12.5814 13.5371 12.5102 13.4171Z" fill="#333333"/>
<path d="M11.5619 15.9519C13.0048 15.9519 14.1745 14.7821 14.1745 13.3392C14.1745 11.8963 13.0048 10.7266 11.5619 10.7266C10.1189 10.7266 8.94922 11.8963 8.94922 13.3392C8.94922 14.7821 10.1189 15.9519 11.5619 15.9519Z" stroke="black" stroke-width="0.33353"/>
<path d="M11.5618 10.6161V3.77876C11.5618 3.16475 11.064 2.66699 10.45 2.66699H2.11177C1.49776 2.66699 1 3.16475 1 3.77876V13.7847C1 14.3987 1.49775 14.8964 2.11177 14.8964H9.44943" stroke="black" stroke-width="0.33353"/>
<path d="M10.3388 3.72266H2.33409C2.18059 3.72266 2.05615 3.8471 2.05615 4.0006V5.22354C2.05615 5.37704 2.18059 5.50148 2.33409 5.50148H10.3388C10.4923 5.50148 10.6168 5.37704 10.6168 5.22354V4.0006C10.6168 3.8471 10.4923 3.72266 10.3388 3.72266Z" stroke="black" stroke-width="0.33353"/>
<path d="M3.33468 6.28027H2.33409C2.18059 6.28027 2.05615 6.40471 2.05615 6.55822V7.33645C2.05615 7.48995 2.18059 7.61439 2.33409 7.61439H3.33468C3.48819 7.61439 3.61263 7.48995 3.61263 7.33645V6.55822C3.61263 6.40471 3.48819 6.28027 3.33468 6.28027Z" stroke="black" stroke-width="0.33353"/>
<path d="M3.33468 8.39258H2.33409C2.18059 8.39258 2.05615 8.51702 2.05615 8.67052V9.44876C2.05615 9.60226 2.18059 9.7267 2.33409 9.7267H3.33468C3.48819 9.7267 3.61263 9.60226 3.61263 9.44876V8.67052C3.61263 8.51702 3.48819 8.39258 3.33468 8.39258Z" stroke="black" stroke-width="0.33353"/>
<path d="M3.33468 10.5049H2.33409C2.18059 10.5049 2.05615 10.6293 2.05615 10.7828V11.5611C2.05615 11.7146 2.18059 11.839 2.33409 11.839H3.33468C3.48819 11.839 3.61263 11.7146 3.61263 11.5611V10.7828C3.61263 10.6293 3.48819 10.5049 3.33468 10.5049Z" stroke="black" stroke-width="0.33353"/>
<path d="M3.33468 12.6172H2.33409C2.18059 12.6172 2.05615 12.7416 2.05615 12.8951V13.6734C2.05615 13.8269 2.18059 13.9513 2.33409 13.9513H3.33468C3.48819 13.9513 3.61263 13.8269 3.61263 13.6734V12.8951C3.61263 12.7416 3.48819 12.6172 3.33468 12.6172Z" stroke="black" stroke-width="0.33353"/>
<path d="M5.6694 6.28027H4.66881C4.51531 6.28027 4.39087 6.40471 4.39087 6.55822V7.33645C4.39087 7.48995 4.51531 7.61439 4.66881 7.61439H5.6694C5.8229 7.61439 5.94734 7.48995 5.94734 7.33645V6.55822C5.94734 6.40471 5.8229 6.28027 5.6694 6.28027Z" stroke="black" stroke-width="0.33353"/>
<path d="M5.6694 8.39258H4.66881C4.51531 8.39258 4.39087 8.51702 4.39087 8.67052V9.44876C4.39087 9.60226 4.51531 9.7267 4.66881 9.7267H5.6694C5.8229 9.7267 5.94734 9.60226 5.94734 9.44876V8.67052C5.94734 8.51702 5.8229 8.39258 5.6694 8.39258Z" stroke="black" stroke-width="0.33353"/>
<path d="M5.6694 10.5049H4.66881C4.51531 10.5049 4.39087 10.6293 4.39087 10.7828V11.5611C4.39087 11.7146 4.51531 11.839 4.66881 11.839H5.6694C5.8229 11.839 5.94734 11.7146 5.94734 11.5611V10.7828C5.94734 10.6293 5.8229 10.5049 5.6694 10.5049Z" stroke="black" stroke-width="0.33353"/>
<path d="M5.6694 12.6172H4.66881C4.51531 12.6172 4.39087 12.7416 4.39087 12.8951V13.6734C4.39087 13.8269 4.51531 13.9513 4.66881 13.9513H5.6694C5.8229 13.9513 5.94734 13.8269 5.94734 13.6734V12.8951C5.94734 12.7416 5.8229 12.6172 5.6694 12.6172Z" stroke="black" stroke-width="0.33353"/>
<path d="M8.00412 6.28027H7.00353C6.85002 6.28027 6.72559 6.40471 6.72559 6.55822V7.33645C6.72559 7.48995 6.85002 7.61439 7.00353 7.61439H8.00412C8.15762 7.61439 8.28206 7.48995 8.28206 7.33645V6.55822C8.28206 6.40471 8.15762 6.28027 8.00412 6.28027Z" stroke="black" stroke-width="0.33353"/>
<path d="M8.00412 8.39258H7.00353C6.85002 8.39258 6.72559 8.51702 6.72559 8.67052V9.44876C6.72559 9.60226 6.85002 9.7267 7.00353 9.7267H8.00412C8.15762 9.7267 8.28206 9.60226 8.28206 9.44876V8.67052C8.28206 8.51702 8.15762 8.39258 8.00412 8.39258Z" stroke="black" stroke-width="0.33353"/>
<path d="M8.00412 10.5049H7.00353C6.85002 10.5049 6.72559 10.6293 6.72559 10.7828V11.5611C6.72559 11.7146 6.85002 11.839 7.00353 11.839H8.00412C8.15762 11.839 8.28206 11.7146 8.28206 11.5611V10.7828C8.28206 10.6293 8.15762 10.5049 8.00412 10.5049Z" stroke="black" stroke-width="0.33353"/>
<path d="M8.00412 12.6172H7.00353C6.85002 12.6172 6.72559 12.7416 6.72559 12.8951V13.6734C6.72559 13.8269 6.85002 13.9513 7.00353 13.9513H8.00412C8.15762 13.9513 8.28206 13.8269 8.28206 13.6734V12.8951C8.28206 12.7416 8.15762 12.6172 8.00412 12.6172Z" stroke="black" stroke-width="0.33353"/>
<path d="M10.3388 6.28027H9.33824C9.18474 6.28027 9.0603 6.40471 9.0603 6.55822V7.33645C9.0603 7.48995 9.18474 7.61439 9.33824 7.61439H10.3388C10.4923 7.61439 10.6168 7.48995 10.6168 7.33645V6.55822C10.6168 6.40471 10.4923 6.28027 10.3388 6.28027Z" stroke="black" stroke-width="0.33353"/>
<path d="M10.3388 8.39258H9.33824C9.18474 8.39258 9.0603 8.51702 9.0603 8.67052V9.44876C9.0603 9.60226 9.18474 9.7267 9.33824 9.7267H10.3388C10.4923 9.7267 10.6168 9.60226 10.6168 9.44876V8.67052C10.6168 8.51702 10.4923 8.39258 10.3388 8.39258Z" stroke="black" stroke-width="0.33353"/>
</svg>
