<svg width="20" height="20" viewBox="0 0 20 20" fill="none" xmlns="http://www.w3.org/2000/svg">
<path d="M14.2849 18.0099L15.5423 18.3579C15.8487 18.4427 16.1605 18.2419 16.2101 17.928L18.4421 3.79556C18.488 3.50519 18.2898 3.23263 17.9994 3.18674L5.38899 1.19507C5.09554 1.14873 4.82095 1.35159 4.77902 1.64571L4.5708 3.106" stroke="black" stroke-width="0.37037"/>
<path d="M14.4183 3.1582H1.64348C1.45179 3.1582 1.29639 3.3136 1.29639 3.5053V17.877C1.29639 18.0687 1.45179 18.2241 1.64348 18.2241H14.4183C14.61 18.2241 14.7654 18.0687 14.7654 17.877V3.5053C14.7654 3.3136 14.61 3.1582 14.4183 3.1582Z" stroke="black" stroke-width="0.37037"/>
<mask id="mask0_384_916" style="mask-type:luminance" maskUnits="userSpaceOnUse" x="7" y="10" width="7" height="8">
<path d="M10.5591 11.2236C10.0064 11.2236 9.46617 11.3875 9.00662 11.6946C8.54706 12.0017 8.18888 12.4381 7.97736 12.9487C7.76588 13.4593 7.7105 14.0212 7.81836 14.5633C7.92617 15.1054 8.19232 15.6033 8.58313 15.9941C8.97395 16.385 9.47188 16.6511 10.0139 16.7589C10.556 16.8667 11.1179 16.8114 11.6285 16.5999C12.1392 16.3884 12.5756 16.0302 12.8827 15.5707C13.1897 15.1111 13.3536 14.5708 13.3536 14.0181H10.5591V11.2236Z" stroke="black" stroke-width="0.740741"/>
</mask>
<g mask="url(#mask0_384_916)">
<path d="M10.5591 11.2236C10.0064 11.2236 9.46617 11.3875 9.00662 11.6946C8.54706 12.0017 8.18888 12.4381 7.97736 12.9487C7.76588 13.4593 7.7105 14.0212 7.81836 14.5633C7.92617 15.1054 8.19232 15.6033 8.58313 15.9941C8.97395 16.385 9.47188 16.6511 10.0139 16.7589C10.556 16.8667 11.1179 16.8114 11.6285 16.5999C12.1392 16.3884 12.5756 16.0302 12.8827 15.5707C13.1897 15.1111 13.3536 14.5708 13.3536 14.0181H10.5591V11.2236Z" stroke="black" stroke-width="0.740741"/>
</g>
<path d="M10.9783 13.1798L11.2596 12.0391" stroke="black" stroke-width="0.37037"/>
<path d="M11.1177 11.9277H13.214" stroke="black" stroke-width="0.37037"/>
<path d="M1.90942 11.8369H6.69996" stroke="black" stroke-width="0.37037"/>
<path d="M1.90942 13.168H6.69996" stroke="black" stroke-width="0.37037"/>
<path d="M1.90942 14.498H6.69996" stroke="black" stroke-width="0.37037"/>
<path d="M8.8291 17.4258H12.2889" stroke="black" stroke-width="0.37037"/>
<path d="M2.84111 17.6109C3.06158 17.6109 3.24032 17.4322 3.24032 17.2117C3.24032 16.9912 3.06158 16.8125 2.84111 16.8125C2.62063 16.8125 2.44189 16.9912 2.44189 17.2117C2.44189 17.4322 2.62063 17.6109 2.84111 17.6109Z" fill="black"/>
<path d="M2.30864 4.56991C2.52911 4.56991 2.70785 4.39117 2.70785 4.1707C2.70785 3.95022 2.52911 3.77148 2.30864 3.77148C2.08816 3.77148 1.90942 3.95022 1.90942 4.1707C1.90942 4.39117 2.08816 4.56991 2.30864 4.56991Z" fill="black"/>
<path d="M13.4866 4.56991C13.7071 4.56991 13.8858 4.39117 13.8858 4.1707C13.8858 3.95022 13.7071 3.77148 13.4866 3.77148C13.2661 3.77148 13.0874 3.95022 13.0874 4.1707C13.0874 4.39117 13.2661 4.56991 13.4866 4.56991Z" fill="black"/>
<path d="M7.41761 17.7151C7.51988 17.7151 7.60279 17.6322 7.60279 17.5299C7.60279 17.4276 7.51988 17.3447 7.41761 17.3447C7.31533 17.3447 7.23242 17.4276 7.23242 17.5299C7.23242 17.6322 7.31533 17.7151 7.41761 17.7151Z" fill="black"/>
<path d="M8.21595 17.7151C8.31822 17.7151 8.40113 17.6322 8.40113 17.5299C8.40113 17.4276 8.31822 17.3447 8.21595 17.3447C8.11367 17.3447 8.03076 17.4276 8.03076 17.5299C8.03076 17.6322 8.11367 17.7151 8.21595 17.7151Z" fill="black"/>
<path d="M13.2205 17.8775C13.441 17.8775 13.6197 17.6988 13.6197 17.4783C13.6197 17.2578 13.441 17.0791 13.2205 17.0791C13 17.0791 12.8213 17.2578 12.8213 17.4783C12.8213 17.6988 13 17.8775 13.2205 17.8775Z" fill="black"/>
<path d="M2.36084 5.10254V10.6915" stroke="black" stroke-width="0.37037"/>
<path d="M2.17554 10.5068H13.0873" stroke="black" stroke-width="0.37037"/>
<path d="M3.11719 9.51981L5.37185 7.51562" stroke="black" stroke-width="0.37037"/>
<path d="M6.37402 9.00461L9.23788 6.45898" stroke="black" stroke-width="0.37037"/>
<path d="M10.6328 8.30832L13.4967 5.7627" stroke="black" stroke-width="0.37037"/>
<path d="M5.24438 7.5293L6.59324 9.07748" stroke="black" stroke-width="0.37037"/>
<path d="M9.04272 6.43848L10.756 8.40496" stroke="black" stroke-width="0.37037"/>
</svg>
