<svg width="22" height="22" viewBox="0 0 22 22" fill="none" xmlns="http://www.w3.org/2000/svg">
<path d="M7.33393 11C7.33393 8.97504 8.97504 7.33304 11 7.33304C13.025 7.33304 14.667 8.97504 14.667 11C14.667 13.025 13.025 14.667 11 14.667C8.97504 14.667 7.33393 13.025 7.33393 11ZM5.35162 11C5.35162 14.1196 7.88037 16.6484 11 16.6484C14.1196 16.6484 16.6484 14.1196 16.6484 11C16.6484 7.88037 14.1196 5.35162 11 5.35162C7.88037 5.35162 5.35162 7.88037 5.35162 11ZM15.5519 5.12771C15.5519 5.8563 16.1428 6.44806 16.8723 6.44806C17.6009 6.44806 18.1926 5.8563 18.1926 5.12771C18.1926 4.39911 17.6018 3.80824 16.8723 3.80824C16.1428 3.80824 15.5519 4.39911 15.5519 5.12771ZM6.55557 19.9537C5.48312 19.9048 4.90024 19.7263 4.51284 19.5752C3.99927 19.3753 3.6332 19.1372 3.24758 18.7524C2.86284 18.3677 2.62383 18.0016 2.4248 17.488C2.27375 17.1006 2.09515 16.5178 2.04628 15.4453C1.99297 14.2858 1.98231 13.9375 1.98231 11C1.98231 8.06252 1.99386 7.71511 2.04628 6.55469C2.09515 5.48223 2.27464 4.90024 2.4248 4.51195C2.62472 3.99838 2.86284 3.63231 3.24758 3.24669C3.63231 2.86195 3.99838 2.62294 4.51284 2.42391C4.90024 2.27286 5.48312 2.09426 6.55557 2.0454C7.7151 1.99208 8.06341 1.98142 11 1.98142C13.9375 1.98142 14.2849 1.99297 15.4453 2.0454C16.5178 2.09426 17.0998 2.27375 17.488 2.42391C18.0016 2.62294 18.3677 2.86195 18.7533 3.24669C19.138 3.63142 19.3762 3.99838 19.5761 4.51195C19.7271 4.89935 19.9057 5.48223 19.9546 6.55469C20.0079 7.71511 20.0186 8.06252 20.0186 11C20.0186 13.9366 20.0079 14.2849 19.9546 15.4453C19.9057 16.5178 19.7263 17.1006 19.5761 17.488C19.3762 18.0016 19.138 18.3677 18.7533 18.7524C18.3686 19.1372 18.0016 19.3753 17.488 19.5752C17.1006 19.7263 16.5178 19.9048 15.4453 19.9537C14.2858 20.007 13.9375 20.0177 11 20.0177C8.06341 20.0177 7.7151 20.007 6.55557 19.9537ZM6.46494 0.0666397C5.29386 0.119952 4.49418 0.305654 3.79491 0.577544C3.07165 0.85832 2.45856 1.23506 1.84637 1.84637C1.23506 2.45767 0.85832 3.07076 0.577544 3.79491C0.305654 4.49418 0.119952 5.29386 0.0666397 6.46494C0.0124394 7.6378 0 8.01276 0 11C0 13.9872 0.0124394 14.3622 0.0666397 15.5351C0.119952 16.7061 0.305654 17.5058 0.577544 18.2051C0.85832 18.9284 1.23417 19.5423 1.84637 20.1536C2.45767 20.7649 3.07076 21.1408 3.79491 21.4225C4.49507 21.6943 5.29386 21.88 6.46494 21.9334C7.63869 21.9867 8.01276 22 11 22C13.9881 22 14.3622 21.9876 15.5351 21.9334C16.7061 21.88 17.5058 21.6943 18.2051 21.4225C18.9284 21.1408 19.5414 20.7649 20.1536 20.1536C20.7649 19.5423 21.1408 18.9284 21.4225 18.2051C21.6943 17.5058 21.8809 16.7061 21.9334 15.5351C21.9867 14.3613 21.9991 13.9872 21.9991 11C21.9991 8.01276 21.9867 7.6378 21.9334 6.46494C21.88 5.29386 21.6943 4.49418 21.4225 3.79491C21.1408 3.07165 20.7649 2.45856 20.1536 1.84637C19.5423 1.23506 18.9284 0.85832 18.206 0.577544C17.5058 0.305654 16.7061 0.119063 15.5359 0.0666397C14.3631 0.0133279 13.9881 0 11.0009 0C8.01276 0 7.63869 0.0124394 6.46494 0.0666397Z" fill="white"/>
</svg>
