<svg width="23" height="22" viewBox="0 0 23 22" fill="none" xmlns="http://www.w3.org/2000/svg">
<g clip-path="url(#clip0_412_33)">
<mask id="mask0_412_33" style="mask-type:luminance" maskUnits="userSpaceOnUse" x="0" y="0" width="23" height="22">
<path d="M22.9067 0H0.906738V21.0232H22.9067V0Z" fill="white"/>
</mask>
<g mask="url(#mask0_412_33)">
<path d="M0.906738 2.44208C0.906738 1.73422 1.15449 1.15024 1.64998 0.690154C2.14547 0.230044 2.78963 0 3.58241 0C4.36106 0 4.99103 0.226498 5.47238 0.679537C5.96786 1.14672 6.21562 1.75546 6.21562 2.50579C6.21562 3.18533 5.97496 3.75159 5.49361 4.20463C4.99812 4.67181 4.34689 4.90541 3.53994 4.90541H3.51871C2.74006 4.90541 2.11009 4.67181 1.62875 4.20463C1.1474 3.73745 0.906738 3.14993 0.906738 2.44208ZM1.1828 21.0232V6.83784H5.89709V21.0232H1.1828ZM8.50906 21.0232H13.2233V13.1023C13.2233 12.6068 13.28 12.2246 13.3932 11.9556C13.5914 11.4743 13.8923 11.0672 14.2957 10.7346C14.6992 10.4019 15.2053 10.2355 15.8141 10.2355C17.3997 10.2355 18.1925 11.3044 18.1925 13.4421V21.0232H22.9067V12.89C22.9067 10.7947 22.4113 9.2056 21.4203 8.12259C20.4293 7.03957 19.1197 6.49807 17.4917 6.49807C15.6654 6.49807 14.2426 7.28378 13.2233 8.85521V8.89768H13.2021L13.2233 8.85521V6.83784H8.50906C8.53736 7.29085 8.55153 8.69947 8.55153 11.0637C8.55153 13.4279 8.53736 16.7477 8.50906 21.0232Z" fill="white"/>
</g>
</g>
<defs>
<clipPath id="clip0_412_33">
<rect width="23" height="22" fill="white"/>
</clipPath>
</defs>
</svg>
