<svg width="30" height="44" viewBox="0 0 30 44" fill="none" xmlns="http://www.w3.org/2000/svg">
<g clip-path="url(#clip0_411_26)">
<path d="M17.2441 5.05178C16.8102 5.04864 16.4563 5.39781 16.4531 5.83093C16.45 6.26406 16.7984 6.61794 17.2323 6.62108C17.6654 6.62421 18.0193 6.27583 18.0224 5.8427C18.0256 5.40958 17.6772 5.0557 17.2441 5.05178Z" fill="white"/>
<path d="M17.2057 9.75991C14.1761 9.73841 11.6949 12.1825 11.672 15.2112C11.6492 18.2397 14.0946 20.722 17.1233 20.7448C17.1373 20.7449 17.1513 20.745 17.1654 20.745C20.1747 20.745 22.6342 18.3082 22.6569 15.2936C22.6798 12.2652 20.2344 9.78274 17.2057 9.75991ZM17.1652 19.1758C17.1553 19.1758 17.145 19.1757 17.1351 19.1756C14.9717 19.1593 13.2249 17.3861 13.2413 15.2229C13.2575 13.0695 15.0142 11.329 17.1638 11.329C17.1737 11.329 17.184 11.329 17.1939 11.3291C19.3573 11.3454 21.1041 13.1186 21.0877 15.2818C21.0714 17.4353 19.3148 19.1758 17.1652 19.1758Z" fill="white"/>
<path d="M20.59 5.64786C20.1818 5.50302 19.7331 5.71684 19.5883 6.12532C19.4435 6.53381 19.6573 6.98224 20.0657 7.12708C23.5219 8.352 25.8252 11.6437 25.7976 15.3179C25.7944 15.7512 26.143 16.1052 26.5763 16.1085C26.5783 16.1085 26.5803 16.1085 26.5824 16.1085C27.0128 16.1085 27.3636 15.761 27.3669 15.3297C27.3995 10.9869 24.6761 7.09609 20.59 5.64786Z" fill="white"/>
<path d="M19.8826 32.3505C25.5986 24.993 29.1707 21.1563 29.219 14.7192C29.2794 6.62021 22.7068 0 14.6083 0C6.60446 0 0.0613358 6.48211 0.000491903 14.5001C-0.0486644 21.1117 3.58985 24.9432 9.34527 32.3493C3.61967 33.2049 0.000491903 35.3548 0.000491903 37.9845C0.000491903 39.7459 1.62867 41.3266 4.58518 42.4352C7.27615 43.4442 10.8363 44 14.6097 44C18.3832 44 21.9433 43.4442 24.6343 42.4352C27.5908 41.3265 29.219 39.7458 29.219 37.9844C29.219 35.3562 25.6031 33.2068 19.8826 32.3505ZM1.71916 14.5131C1.77278 7.4379 7.54565 1.71875 14.6085 1.71875C21.755 1.71875 27.5536 7.56148 27.5003 14.7064C27.4546 20.8195 23.6663 24.5868 17.6182 32.4709C16.5395 33.8765 15.5488 35.2055 14.611 36.5055C13.676 35.2047 12.7051 33.8996 11.6102 32.4704C5.31213 24.2562 1.67258 20.7736 1.71916 14.5131ZM14.6097 42.2813C7.23189 42.2813 1.71916 40.0128 1.71916 37.9845C1.71916 36.4802 5.0147 34.5799 10.5558 33.9219C11.7807 35.529 12.8545 36.9891 13.9078 38.4803C14.0687 38.708 14.3301 38.8437 14.6089 38.8438C14.6087 38.8438 14.6092 38.8438 14.6089 38.8438C14.8875 38.8438 15.1497 38.7087 15.3108 38.4814C16.3541 37.0097 17.4574 35.5136 18.6717 33.9229C24.2077 34.5816 27.5003 36.4812 27.5003 37.9845C27.5002 40.0128 21.9876 42.2813 14.6097 42.2813Z" fill="white"/>
</g>
<defs>
<clipPath id="clip0_411_26">
<rect width="30" height="44" fill="white"/>
</clipPath>
</defs>
</svg>
