<svg width="35" height="26" viewBox="0 0 35 26" fill="none" xmlns="http://www.w3.org/2000/svg">
<g clip-path="url(#clip0_411_31)">
<path d="M31.7778 0H2.88891C1.2956 0 0 1.2956 0 2.88891V23.1112C0 24.7044 1.2956 26 2.88891 26H31.7778C33.3711 26 34.6667 24.7044 34.6667 23.1111V2.88891C34.6667 1.2956 33.3711 0 31.7778 0ZM2.88891 1.44442H31.7778C31.8843 1.44442 31.978 1.48322 32.0779 1.50516C29.5768 3.79417 21.2836 11.381 18.3815 13.9959C18.1544 14.2004 17.7883 14.4444 17.3334 14.4444C16.8785 14.4444 16.5124 14.2004 16.2846 13.9952C13.3827 11.3808 5.08903 3.79349 2.58835 1.50529C2.68843 1.48335 2.78241 1.44442 2.88891 1.44442ZM1.44442 23.1111V2.88891C1.44442 2.7474 1.48708 2.61903 1.52527 2.4897C3.43952 4.24172 9.22614 9.53543 12.9783 12.9475C9.23833 16.16 3.45021 21.6476 1.52073 23.4875C1.48667 23.3647 1.44442 23.2446 1.44442 23.1111ZM31.7778 24.5556H2.88891C2.77354 24.5556 2.67096 24.5154 2.56323 24.4896C4.55704 22.5889 10.382 17.0697 14.0562 13.9265C14.5351 14.361 14.9727 14.7572 15.3176 15.0679C15.9129 15.6054 16.6097 15.8889 17.3333 15.8889C18.057 15.8889 18.7538 15.6053 19.3483 15.0686C19.6934 14.7577 20.1312 14.3612 20.6105 13.9265C24.2849 17.0694 30.109 22.5882 32.1034 24.4896C31.9957 24.5154 31.8933 24.5556 31.7778 24.5556ZM33.2222 23.1111C33.2222 23.2445 33.18 23.3647 33.146 23.4875C31.2158 21.6467 25.4283 16.1597 21.6885 12.9475C25.4407 9.5355 31.2265 4.24227 33.1414 2.48957C33.1796 2.61889 33.2222 2.74733 33.2222 2.88884V23.1111Z" fill="white"/>
</g>
<defs>
<clipPath id="clip0_411_31">
<rect width="35" height="26" fill="white"/>
</clipPath>
</defs>
</svg>
