<svg width="18" height="14" viewBox="0 0 18 14" fill="none" xmlns="http://www.w3.org/2000/svg">
<g clip-path="url(#clip0_343_244)">
<path fill-rule="evenodd" clip-rule="evenodd" d="M17 0C17.5523 0 18 0.44772 18 1C18 1.55228 17.5523 2 17 2H1C0.4477 2 0 1.55228 0 1C0 0.44772 0.4477 0 1 0H17ZM18 7C18 6.4477 17.5523 6 17 6H3C2.4477 6 2 6.4477 2 7C2 7.5523 2.4477 8 3 8H17C17.5523 8 18 7.5523 18 7ZM18 13C18 12.4477 17.5523 12 17 12H5C4.4477 12 4 12.4477 4 13C4 13.5523 4.4477 14 5 14H17C17.5523 14 18 13.5523 18 13Z" fill="#084B45"/>
</g>
<defs>
<clipPath id="clip0_343_244">
<rect width="18" height="14" fill="white" transform="matrix(-1 0 0 1 18 0)"/>
</clipPath>
</defs>
</svg>
