<svg width="24" height="24" viewBox="0 0 24 24" fill="none" xmlns="http://www.w3.org/2000/svg">
<path d="M4.8002 9.59986C4.79954 8.10389 5.26487 6.64487 6.13154 5.42551C6.9982 4.20616 8.22316 3.28704 9.6362 2.79586C9.58148 2.45304 9.60178 2.10242 9.69572 1.7682C9.78965 1.43398 9.95498 1.12412 10.1803 0.859998C10.4056 0.595874 10.6855 0.383776 11.0008 0.238336C11.316 0.0928963 11.659 0.0175781 12.0062 0.0175781C12.3534 0.0175781 12.6964 0.0928963 13.0116 0.238336C13.3269 0.383776 13.6068 0.595874 13.8321 0.859998C14.0574 1.12412 14.2227 1.43398 14.3167 1.7682C14.4106 2.10242 14.4309 2.45304 14.3762 2.79586C15.787 3.28905 17.0094 4.20904 17.8737 5.42822C18.7381 6.6474 19.2017 8.10535 19.2002 9.59986V16.7999L22.8002 19.1999V20.3999H1.2002V19.1999L4.8002 16.7999V9.59986ZM14.4002 21.5999C14.4002 22.2364 14.1473 22.8468 13.6973 23.2969C13.2472 23.747 12.6367 23.9999 12.0002 23.9999C11.3637 23.9999 10.7532 23.747 10.3031 23.2969C9.85305 22.8468 9.6002 22.2364 9.6002 21.5999H14.4002Z" fill="white"/>
</svg>
