<svg width="36" height="36" viewBox="0 0 36 36" fill="none" xmlns="http://www.w3.org/2000/svg">
<g clip-path="url(#clip0_411_16)">
<path d="M28.4248 22.3011C27.6878 21.5337 26.7988 21.1235 25.8567 21.1235C24.9221 21.1235 24.0256 21.5261 23.2582 22.2935L20.8572 24.6869C20.6597 24.5805 20.4621 24.4817 20.2722 24.383C19.9987 24.2462 19.7403 24.117 19.52 23.9803C17.271 22.5519 15.2272 20.6904 13.2669 18.2818C12.3171 17.0813 11.6789 16.0708 11.2154 15.0451C11.8385 14.4753 12.4159 13.8826 12.9782 13.3128C13.1909 13.1 13.4036 12.8797 13.6164 12.6669C15.212 11.0714 15.212 9.00473 13.6164 7.40917L11.5421 5.33493C11.3066 5.09939 11.0635 4.85626 10.8355 4.61312C10.3797 4.14205 9.90099 3.65578 9.40713 3.19991C8.67013 2.4705 7.78877 2.08301 6.86182 2.08301C5.93487 2.08301 5.03831 2.4705 4.27852 3.19991C4.27092 3.2075 4.27092 3.2075 4.26332 3.2151L1.68002 5.8212C0.707481 6.79373 0.152832 7.97901 0.0312643 9.35424C-0.151086 11.5728 0.502337 13.6395 1.0038 14.9919C2.23467 18.3122 4.07337 21.3894 6.81623 24.6869C10.1441 28.6606 14.1482 31.7986 18.7222 34.0096C20.4697 34.8377 22.8023 35.8179 25.4084 35.985C25.568 35.9926 25.7351 36.0002 25.8871 36.0002C27.6422 36.0002 29.1162 35.3696 30.2711 34.1159C30.2787 34.1007 30.2939 34.0931 30.3015 34.0779C30.6966 33.5993 31.1524 33.1662 31.6311 32.7027C31.9578 32.3912 32.2921 32.0645 32.6188 31.7226C33.371 30.94 33.7661 30.0282 33.7661 29.0937C33.7661 28.1516 33.3634 27.2474 32.5961 26.4876L28.4248 22.3011ZM31.1448 30.3018C31.1372 30.3094 31.1372 30.3018 31.1448 30.3018C30.8485 30.6209 30.5446 30.9096 30.2179 31.2287C29.724 31.6998 29.2226 32.1937 28.7515 32.7483C27.9841 33.5689 27.0799 33.9564 25.8947 33.9564C25.7807 33.9564 25.6591 33.9564 25.5452 33.9488C23.2886 33.8044 21.1915 32.9231 19.6188 32.1709C15.3183 30.089 11.5421 27.1334 8.4042 23.3876C5.8133 20.2649 4.08097 17.3777 2.93368 14.2777C2.22707 12.3858 1.96874 10.9118 2.08271 9.52139C2.15869 8.63244 2.5006 7.89543 3.13123 7.26481L5.72212 4.67391C6.09442 4.3244 6.48952 4.13445 6.87701 4.13445C7.35568 4.13445 7.74318 4.42317 7.98631 4.66631C7.99391 4.67391 8.00151 4.6815 8.00911 4.6891C8.47258 5.12219 8.91326 5.57046 9.37674 6.04913C9.61227 6.29227 9.85541 6.5354 10.0985 6.78613L12.1728 8.86037C12.9782 9.66576 12.9782 10.4104 12.1728 11.2157C11.9524 11.4361 11.7397 11.6564 11.5194 11.8692C10.8811 12.5226 10.2733 13.1304 9.61227 13.7231C9.59708 13.7383 9.58188 13.7459 9.57428 13.761C8.92086 14.4145 9.04243 15.0527 9.17919 15.4858C9.18679 15.5086 9.19439 15.5314 9.20198 15.5542C9.74144 16.861 10.5012 18.0919 11.6561 19.5583L11.6637 19.5659C13.7607 22.1492 15.9718 24.1626 18.4107 25.705C18.7222 25.9026 19.0413 26.0621 19.3452 26.2141C19.6188 26.3508 19.8771 26.48 20.0974 26.6168C20.1278 26.632 20.1582 26.6548 20.1886 26.67C20.4469 26.7991 20.6901 26.8599 20.9408 26.8599C21.5714 26.8599 21.9665 26.4648 22.0957 26.3356L24.6942 23.7371C24.9525 23.4788 25.3628 23.1673 25.8415 23.1673C26.3126 23.1673 26.7 23.4636 26.9356 23.722C26.9432 23.7295 26.9432 23.7295 26.9508 23.7371L31.1372 27.9236C31.9198 28.6986 31.9198 29.4964 31.1448 30.3018Z" fill="white"/>
<path d="M19.4302 8.56311C21.4209 8.89742 23.2292 9.83956 24.6728 11.2832C26.1164 12.7268 27.051 14.5351 27.3929 16.5258C27.4765 17.0272 27.9095 17.3767 28.4034 17.3767C28.4642 17.3767 28.5174 17.3691 28.5782 17.3615C29.1404 17.2704 29.5127 16.7385 29.4215 16.1762C29.0112 13.7677 27.8715 11.5719 26.1316 9.83196C24.3917 8.09203 22.1959 6.95234 19.7873 6.54205C19.2251 6.45088 18.7008 6.82318 18.6021 7.37783C18.5033 7.93248 18.868 8.47193 19.4302 8.56311Z" fill="white"/>
<path d="M35.9309 15.8801C35.2547 11.914 33.3856 8.30499 30.5136 5.43297C27.6416 2.56095 24.0325 0.691855 20.0664 0.0156377C19.5118 -0.0831356 18.9875 0.296762 18.8887 0.851412C18.7975 1.41366 19.1698 1.93792 19.7321 2.03669C23.2727 2.63693 26.5019 4.31607 29.07 6.87658C31.6381 9.44469 33.3096 12.6738 33.9099 16.2145C33.9934 16.7159 34.4265 17.0654 34.9204 17.0654C34.9812 17.0654 35.0344 17.0578 35.0951 17.0502C35.6498 16.9667 36.0297 16.4348 35.9309 15.8801Z" fill="white"/>
</g>
<defs>
<clipPath id="clip0_411_16">
<rect width="36" height="36" fill="white"/>
</clipPath>
</defs>
</svg>
