<svg width="23" height="28" viewBox="0 0 23 28" fill="none" xmlns="http://www.w3.org/2000/svg">
<path d="M4.86377 27.6805C4.86914 27.7235 4.88762 27.7637 4.91668 27.7958C4.94574 27.8279 4.98398 27.8503 5.02619 27.8598C5.0684 27.8694 5.11255 27.8658 5.15262 27.8494C5.19269 27.8331 5.22675 27.8047 5.25017 27.7683C6.56776 26.2123 7.58603 24.4258 8.25358 22.4992C8.44678 21.7966 9.41278 18.1083 9.41278 18.1083C9.87203 18.7501 10.4826 19.2687 11.1904 19.618C11.8982 19.9673 12.6812 20.1365 13.47 20.1105C18.7391 20.1105 22.41 15.421 22.41 9.15073C22.41 4.40851 18.2474 0 11.8717 0C4.00314 0 0.0337283 5.44477 0.0337283 9.97623C-0.0984087 11.2289 0.159714 12.4918 0.772783 13.5922C1.38585 14.6926 2.32392 15.5767 3.45866 16.1235C3.53465 16.1504 3.6154 16.1612 3.69578 16.1551C3.77615 16.149 3.85437 16.1263 3.92544 16.0882C3.99652 16.0502 4.05888 15.9978 4.10855 15.9343C4.15822 15.8709 4.1941 15.7977 4.21391 15.7196C4.30173 15.4386 4.47736 14.736 4.56518 14.4374C4.62985 14.2821 4.64078 14.1096 4.59623 13.9473C4.55168 13.785 4.45421 13.6422 4.31929 13.5417C3.57034 12.6769 3.18071 11.5583 3.23034 10.4153C3.23746 9.36278 3.46002 8.32284 3.88429 7.35958C4.30856 6.39631 4.92556 5.53011 5.69728 4.81433C6.469 4.09855 7.3791 3.54836 8.37151 3.19765C9.36393 2.84693 10.4176 2.70312 11.4677 2.77508C15.9114 2.77508 18.3527 5.40964 18.3527 8.90483C18.3527 13.5065 16.2451 17.4057 13.0836 17.4057C12.6902 17.4331 12.2958 17.3675 11.9324 17.2141C11.5691 17.0608 11.2469 16.824 10.9921 16.523C10.7372 16.222 10.5569 15.8652 10.4656 15.4815C10.3743 15.0978 10.3746 14.698 10.4666 14.3145C11.1154 12.4751 11.6032 10.5828 11.9244 8.65894C11.9545 8.35355 11.9191 8.04526 11.8207 7.75459C11.7224 7.46392 11.5632 7.19755 11.3538 6.97321C11.1444 6.74887 10.8896 6.57172 10.6064 6.45354C10.3232 6.33536 10.0181 6.27887 9.71137 6.28783C7.95499 6.28783 6.51476 8.04421 6.51476 10.4153C6.50375 11.2867 6.68359 12.15 7.04167 12.9445L4.91646 21.7264C4.55278 23.6929 4.53494 25.7078 4.86377 27.6805Z" fill="white"/>
</svg>
