<svg width="32" height="32" viewBox="0 0 32 32" fill="none" xmlns="http://www.w3.org/2000/svg">
<path d="M7.86329 1.46734L27.3084 13.2274C29.3707 14.474 29.3707 17.4657 27.3084 18.7124L7.86329 30.4724C5.72729 31.764 3 30.2256 3 27.7307V4.20905C3 1.71411 5.72729 0.175802 7.86329 1.46734Z" fill="#499ED7"/>
<path d="M7.863 30.4708L27.3081 18.7107C29.3704 17.4641 29.3704 14.4724 27.3081 13.2257L23.371 10.8445L23.1788 10.8381L6.54102 30.8922C7.00769 30.8526 7.45949 30.7085 7.863 30.4708Z" fill="#F04C4D"/>
<path d="M3 23.3561V27.729C3 30.2256 5.72729 31.7623 7.86329 30.4707L27.3084 18.7107C28.5343 17.9704 29.0134 16.6148 28.7811 15.3745L3 23.3561Z" fill="#2B8EC6"/>
<path d="M4.72741 1.37915C4.20585 1.64483 3.76823 2.05002 3.46326 2.54963C3.15829 3.04923 2.99793 3.62366 3.00002 4.20899V8.32076L4.72741 1.37915Z" fill="#499ED7"/>
<path d="M27.3084 13.2275L7.86327 1.46747C7.45872 1.22917 7.00588 1.08462 6.53809 1.04443L23.1774 21.2107L27.31 18.7125C29.3707 17.4642 29.3707 14.4742 27.3084 13.2275Z" fill="#92CA62"/>
<path d="M16.1795 19.2765L6.54102 30.8939C6.98809 30.8474 7.43676 30.7288 7.863 30.4725L27.3081 18.7124C28.534 17.9721 29.0131 16.6165 28.7808 15.3762L16.1795 19.2765Z" fill="#E13340"/>
<path d="M27.3093 13.2274L23.3722 10.8463L23.1799 10.8398L18.8887 16.0124L23.1783 21.2106L27.3109 18.7124C29.3716 17.4642 29.3716 14.4741 27.3093 13.2274Z" fill="#FCD770"/>
<path d="M20.4824 17.9432L23.1777 21.2089L27.3103 18.7107C28.5361 17.9704 29.0152 16.6148 28.7829 15.3745L20.4824 17.9432Z" fill="#FFCC5C"/>
</svg>
