<svg width="14" height="21" viewBox="0 0 14 21" fill="none" xmlns="http://www.w3.org/2000/svg">
<path d="M10.503 2.89777L10.511 3.07442H10.6878H12.5674C13.1841 3.07442 13.6864 3.57671 13.6864 4.19364V19.1808C13.6864 19.7977 13.1841 20.2999 12.5674 20.2999H1.30405C0.687292 20.2999 0.185 19.7977 0.185 19.1808V4.19364C0.185 3.57671 0.687318 3.07442 1.30405 3.07442H3.1836H3.36045L3.36842 2.89776C3.3874 2.47687 3.73286 2.14092 4.15628 2.14092H5.01927H5.20808L5.20423 1.95215C5.1842 0.968785 5.97948 0.185 6.93569 0.185C7.89041 0.185 8.68722 0.967184 8.66719 1.95216L8.66335 2.14092H8.85215H9.71514C10.1386 2.14092 10.484 2.47686 10.503 2.89777ZM4.15628 2.4111C3.86854 2.4111 3.63434 2.64497 3.63434 2.93305V3.48412C3.63434 3.77215 3.86848 4.00607 4.15628 4.00607H9.71511C10.0029 4.00607 10.2371 3.7722 10.2371 3.48412V2.93305C10.2371 2.64503 10.0029 2.4111 9.71511 2.4111H9.70718H9.69921H9.69121H9.68317H9.67509H9.66698H9.65883H9.65065H9.64243H9.63417H9.62588H9.61755H9.60919H9.60079H9.59235H9.58389H9.57538H9.56684H9.55827H9.54967H9.54103H9.53235H9.52364H9.5149H9.50612H9.49731H9.48847H9.4796H9.47069H9.46175H9.45277H9.44377H9.43473H9.42566H9.41655H9.40742H9.39825H9.38905H9.37982H9.37056H9.36127H9.35195H9.34259H9.33321H9.32379H9.31435H9.30487H9.29537H9.28583H9.27626H9.26667H9.25704H9.24739H9.23771H9.22799H9.21825H9.20848H9.19868H9.18886H9.179H9.16912H9.1592H9.14926H9.1393H9.1293H9.11928H9.10923H9.09915H9.08905H9.07892H9.06876H9.05858H9.04837H9.03813H9.02787H9.01758H9.00727H8.99693H8.98657H8.97618H8.96576H8.95532H8.94486H8.93437H8.92385H8.91332H8.90275H8.89217H8.88156H8.87092H8.86026H8.84958H8.83888H8.82815H8.8174H8.80662H8.79583H8.78501H8.77417H8.7633H8.75242H8.74151H8.73058H8.71963H8.70865H8.69766H8.68664H8.6756H8.66455H8.65347H8.64237H8.63125H8.62011H8.60895H8.59777H8.58657H8.57535H8.56411H8.55285H8.54157H8.53028H8.51896H8.50762H8.49627H8.4849H8.47351H8.4621H8.45067H8.43923H8.42776H8.41628H8.40479H8.39327H8.38174H8.37019H8.35862H8.34704H8.33544H8.32383H8.31219H8.30055H8.28888H8.2772H8.26551H8.25379H8.24207H8.23033H8.21857H8.2068H8.19501H8.18321H8.17139H8.15956H8.14772H8.13586H8.12399H8.1121H8.1002H8.08829H8.07637H8.06443H8.05247H8.04051H8.02853H8.01654H8.00454H7.99253H7.9805H7.96846H7.95641H7.94435H7.93228H7.92019H7.90809H7.89599H7.88387H7.87174H7.8596H7.84745H7.83529H7.82312H7.81094H7.79875H7.78656H7.77435H7.76213H7.7499H7.73767H7.72542H7.71317H7.7009H7.68863H7.67635H7.66407H7.65177H7.63947H7.62716H7.61484H7.60251H7.59018H7.57784H7.56549H7.55314H7.54078H7.52841H7.51603H7.50365H7.49127H7.47888H7.46648H7.45408H7.44167H7.42925H7.41684H7.40441H7.39198H7.37955H7.36711H7.35467H7.34222H7.32977H7.31732H7.30486H7.2924H7.27993H7.26746H7.25499H7.24251H7.23004H7.21755H7.20507H7.19258H7.1801H7.16761H7.15511H7.14262H7.13012H7.11763H7.10513H7.09263H7.08013H7.06762H7.05512H7.04262H7.03011H7.01761H7.00511H6.9926H6.9801H6.96759H6.95509H6.94258H6.93008H6.91758H6.90508H6.89258H6.88008H6.86759H6.85509H6.8426H6.83011H6.81762H6.80513H6.79264H6.78016H6.76768H6.75521H6.74273H6.73026H6.71779H6.70533H6.69287H6.68041H6.66796H6.65551H6.64307H6.63063H6.61819H6.60576H6.59333H6.58091H6.5685H6.55609H6.54368H6.53128H6.51888H6.5065H6.49411H6.48174H6.46937H6.457H6.44464H6.43229H6.41995H6.40761H6.39528H6.38296H6.37065H6.35834H6.34604H6.33375H6.32147H6.30919H6.29692H6.28467H6.27242H6.26018H6.24794H6.23572H6.22351H6.2113H6.19911H6.18692H6.17475H6.16259H6.15043H6.13829H6.12615H6.11403H6.10192H6.08982H6.07773H6.06565H6.05358H6.04152H6.02948H6.01745H6.00543H5.99342H5.98142H5.96944H5.95747H5.94551H5.93356H5.92163H5.90971H5.89781H5.88591H5.87404H5.86217H5.85032H5.83848H5.82666H5.81485H5.80306H5.79128H5.77951H5.76777H5.75603H5.74431H5.73261H5.72092H5.70925H5.69759H5.68595H5.67433H5.66272H5.65113H5.63956H5.628H5.61646H5.60493H5.59343H5.58194H5.57047H5.55901H5.54758H5.53616H5.52476H5.51338H5.50202H5.49067H5.47935H5.46804H5.45675H5.44548H5.43424H5.42301H5.4118H5.40061H5.38944H5.37829H5.36716H5.35605H5.34496H5.33389H5.32284H5.31182H5.30081H5.28983H5.27887H5.26792H5.25701H5.24611H5.23523H5.22438H5.21355H5.20274H5.19196H5.18119H5.17046H5.15974H5.14905H5.13838H5.12773H5.11711H5.10651H5.09593H5.08538H5.07486H5.06436H5.05388H5.04343H5.033H5.0226H5.01222H5.00187H4.99154H4.98124H4.97097H4.96072H4.9505H4.9403H4.93013H4.91999H4.90987H4.89978H4.88972H4.87968H4.86967H4.85969H4.84974H4.83981H4.82992H4.82005H4.81021H4.80039H4.79061H4.78085H4.77113H4.76143H4.75176H4.74212H4.73251H4.72293H4.71338H4.70386H4.69437H4.68491H4.67548H4.66608H4.65671H4.64737H4.63806H4.62879H4.61954H4.61033H4.60114H4.59199H4.58287H4.57379H4.56473H4.55571H4.54672H4.53776H4.52884H4.51995H4.51109H4.50226H4.49347H4.48471H4.47599H4.46729H4.45864H4.45001H4.44142H4.43287H4.42435H4.41586H4.40741H4.399H4.39062H4.38227H4.37396H4.36569H4.35745H4.34925H4.34108H4.33295H4.32486H4.3168H4.30878H4.30079H4.29285H4.28494H4.27706H4.26923H4.26143H4.25367H4.24595H4.23826H4.23062H4.22301H4.21544H4.20791H4.20041H4.19296H4.18555H4.17817H4.17084H4.16354H4.15628Z" stroke="black" stroke-width="0.37"/>
<mask id="path-2-inside-1_382_705" fill="white">
<path d="M2.42762 9.1376H5.44616C5.53463 9.1376 5.60619 9.06604 5.60619 8.97757V5.95887C5.60619 5.8704 5.53463 5.79883 5.44616 5.79883H2.42762C2.33915 5.79883 2.26758 5.8704 2.26758 5.95887V8.97757C2.26758 9.06604 2.33918 9.1376 2.42762 9.1376ZM2.58765 6.11894H5.28612V8.81756H2.58765V6.11894ZM7.14998 6.93865H12.0255C12.114 6.93865 12.1855 6.86708 12.1855 6.77861C12.1855 6.69014 12.114 6.61857 12.0255 6.61857H7.14998C7.06152 6.61857 6.98995 6.69014 6.98995 6.77861C6.98995 6.86708 7.06155 6.93865 7.14998 6.93865ZM7.14998 8.31789H9.60337C9.69184 8.31789 9.76341 8.24632 9.76341 8.15785C9.76341 8.06938 9.69184 7.99781 9.60337 7.99781H7.14998C7.06152 7.99781 6.98995 8.06938 6.98995 8.15785C6.98995 8.24632 7.06155 8.31789 7.14998 8.31789ZM2.42762 13.8225H5.44616C5.53463 13.8225 5.60619 13.7509 5.60619 13.6625V10.6438C5.60619 10.5553 5.53463 10.4837 5.44616 10.4837H2.42762C2.33915 10.4837 2.26758 10.5553 2.26758 10.6438V13.6625C2.26758 13.7509 2.33918 13.8225 2.42762 13.8225ZM2.58765 10.8038H5.28612V13.5024H2.58765V10.8038ZM7.14998 11.6235H12.0255C12.114 11.6235 12.1855 11.5519 12.1855 11.4635C12.1855 11.375 12.114 11.3034 12.0255 11.3034H7.14998C7.06152 11.3034 6.98995 11.375 6.98995 11.4635C6.98995 11.5519 7.06155 11.6235 7.14998 11.6235ZM7.14998 13.0027H9.60337C9.69184 13.0027 9.76341 12.9312 9.76341 12.8427C9.76341 12.7542 9.69184 12.6827 9.60337 12.6827H7.14998C7.06152 12.6827 6.98995 12.7542 6.98995 12.8427C6.98995 12.9312 7.06155 13.0027 7.14998 13.0027ZM2.42762 18.5083H5.44616C5.53463 18.5083 5.60619 18.4367 5.60619 18.3482V15.3295C5.60619 15.2411 5.53463 15.1695 5.44616 15.1695H2.42762C2.33915 15.1695 2.26758 15.2411 2.26758 15.3295V18.3482C2.26758 18.4367 2.33918 18.5083 2.42762 18.5083ZM2.58765 15.4896H5.28612V18.1882H2.58765V15.4896ZM7.14998 16.3095H12.0255C12.114 16.3095 12.1855 16.2379 12.1855 16.1494C12.1855 16.061 12.114 15.9894 12.0255 15.9894H7.14998C7.06152 15.9894 6.98995 16.061 6.98995 16.1494C6.98995 16.2379 7.06155 16.3095 7.14998 16.3095ZM7.14998 17.6886H9.60337C9.69184 17.6886 9.76341 17.617 9.76341 17.5285C9.76341 17.4401 9.69184 17.3685 9.60337 17.3685H7.14998C7.06152 17.3685 6.98995 17.4401 6.98995 17.5285C6.98995 17.617 7.06155 17.6886 7.14998 17.6886Z"/>
</mask>
<path d="M2.58765 6.11894V5.74894H2.21765V6.11894H2.58765ZM5.28612 6.11894H5.65612V5.74894H5.28612V6.11894ZM5.28612 8.81756V9.18756H5.65612V8.81756H5.28612ZM2.58765 8.81756H2.21765V9.18756H2.58765V8.81756ZM2.58765 10.8038V10.4338H2.21765V10.8038H2.58765ZM5.28612 10.8038H5.65612V10.4338H5.28612V10.8038ZM5.28612 13.5024V13.8724H5.65612V13.5024H5.28612ZM2.58765 13.5024H2.21765V13.8724H2.58765V13.5024ZM2.58765 15.4896V15.1196H2.21765V15.4896H2.58765ZM5.28612 15.4896H5.65612V15.1196H5.28612V15.4896ZM5.28612 18.1882V18.5582H5.65612V18.1882H5.28612ZM2.58765 18.1882H2.21765V18.5582H2.58765V18.1882ZM2.42762 9.5076H5.44616V8.7676H2.42762V9.5076ZM5.44616 9.5076C5.73897 9.5076 5.97619 9.27038 5.97619 8.97757H5.23619C5.23619 8.86169 5.33028 8.7676 5.44616 8.7676V9.5076ZM5.97619 8.97757V5.95887H5.23619V8.97757H5.97619ZM5.97619 5.95887C5.97619 5.66605 5.73897 5.42883 5.44616 5.42883V6.16883C5.33028 6.16883 5.23619 6.07474 5.23619 5.95887H5.97619ZM5.44616 5.42883H2.42762V6.16883H5.44616V5.42883ZM2.42762 5.42883C2.1348 5.42883 1.89758 5.66605 1.89758 5.95887H2.63758C2.63758 6.07474 2.54349 6.16883 2.42762 6.16883V5.42883ZM1.89758 5.95887V8.97757H2.63758V5.95887H1.89758ZM1.89758 8.97757C1.89758 9.27043 2.13488 9.5076 2.42762 9.5076V8.7676C2.54348 8.7676 2.63758 8.86164 2.63758 8.97757H1.89758ZM2.58765 6.48894H5.28612V5.74894H2.58765V6.48894ZM4.91612 6.11894V8.81756H5.65612V6.11894H4.91612ZM5.28612 8.44756H2.58765V9.18756H5.28612V8.44756ZM2.95765 8.81756V6.11894H2.21765V8.81756H2.95765ZM7.14998 7.30865H12.0255V6.56865H7.14998V7.30865ZM12.0255 7.30865C12.3183 7.30865 12.5555 7.07143 12.5555 6.77861H11.8155C11.8155 6.66274 11.9096 6.56865 12.0255 6.56865V7.30865ZM12.5555 6.77861C12.5555 6.4858 12.3183 6.24857 12.0255 6.24857V6.98857C11.9096 6.98857 11.8155 6.89449 11.8155 6.77861H12.5555ZM12.0255 6.24857H7.14998V6.98857H12.0255V6.24857ZM7.14998 6.24857C6.85717 6.24857 6.61995 6.4858 6.61995 6.77861H7.35995C7.35995 6.89449 7.26586 6.98857 7.14998 6.98857V6.24857ZM6.61995 6.77861C6.61995 7.07148 6.85725 7.30865 7.14998 7.30865V6.56865C7.26584 6.56865 7.35995 6.66269 7.35995 6.77861H6.61995ZM7.14998 8.68789H9.60337V7.94789H7.14998V8.68789ZM9.60337 8.68789C9.89618 8.68789 10.1334 8.45067 10.1334 8.15785H9.39341C9.39341 8.04198 9.48749 7.94789 9.60337 7.94789V8.68789ZM10.1334 8.15785C10.1334 7.86504 9.89618 7.62781 9.60337 7.62781V8.36781C9.48749 8.36781 9.39341 8.27373 9.39341 8.15785H10.1334ZM9.60337 7.62781H7.14998V8.36781H9.60337V7.62781ZM7.14998 7.62781C6.85717 7.62781 6.61995 7.86504 6.61995 8.15785H7.35995C7.35995 8.27373 7.26586 8.36781 7.14998 8.36781V7.62781ZM6.61995 8.15785C6.61995 8.45071 6.85725 8.68789 7.14998 8.68789V7.94789C7.26584 7.94789 7.35995 8.04193 7.35995 8.15785H6.61995ZM2.42762 14.1925H5.44616V13.4525H2.42762V14.1925ZM5.44616 14.1925C5.73897 14.1925 5.97619 13.9553 5.97619 13.6625H5.23619C5.23619 13.5466 5.33028 13.4525 5.44616 13.4525V14.1925ZM5.97619 13.6625V10.6438H5.23619V13.6625H5.97619ZM5.97619 10.6438C5.97619 10.3509 5.73897 10.1137 5.44616 10.1137V10.8537C5.33028 10.8537 5.23619 10.7596 5.23619 10.6438H5.97619ZM5.44616 10.1137H2.42762V10.8537H5.44616V10.1137ZM2.42762 10.1137C2.1348 10.1137 1.89758 10.3509 1.89758 10.6438H2.63758C2.63758 10.7596 2.54349 10.8537 2.42762 10.8537V10.1137ZM1.89758 10.6438V13.6625H2.63758V10.6438H1.89758ZM1.89758 13.6625C1.89758 13.9552 2.13483 14.1925 2.42762 14.1925V13.4525C2.54353 13.4525 2.63758 13.5465 2.63758 13.6625H1.89758ZM2.58765 11.1738H5.28612V10.4338H2.58765V11.1738ZM4.91612 10.8038V13.5024H5.65612V10.8038H4.91612ZM5.28612 13.1324H2.58765V13.8724H5.28612V13.1324ZM2.95765 13.5024V10.8038H2.21765V13.5024H2.95765ZM7.14998 11.9935H12.0255V11.2535H7.14998V11.9935ZM12.0255 11.9935C12.3183 11.9935 12.5555 11.7563 12.5555 11.4635H11.8155C11.8155 11.3476 11.9096 11.2535 12.0255 11.2535V11.9935ZM12.5555 11.4635C12.5555 11.1707 12.3183 10.9334 12.0255 10.9334V11.6734C11.9096 11.6734 11.8155 11.5793 11.8155 11.4635H12.5555ZM12.0255 10.9334H7.14998V11.6734H12.0255V10.9334ZM7.14998 10.9334C6.85717 10.9334 6.61995 11.1707 6.61995 11.4635H7.35995C7.35995 11.5793 7.26586 11.6734 7.14998 11.6734V10.9334ZM6.61995 11.4635C6.61995 11.7563 6.85725 11.9935 7.14998 11.9935V11.2535C7.26584 11.2535 7.35995 11.3475 7.35995 11.4635H6.61995ZM7.14998 13.3727H9.60337V12.6327H7.14998V13.3727ZM9.60337 13.3727C9.89618 13.3727 10.1334 13.1355 10.1334 12.8427H9.39341C9.39341 12.7268 9.48749 12.6327 9.60337 12.6327V13.3727ZM10.1334 12.8427C10.1334 12.5499 9.89618 12.3127 9.60337 12.3127V13.0527C9.48749 13.0527 9.39341 12.9586 9.39341 12.8427H10.1334ZM9.60337 12.3127H7.14998V13.0527H9.60337V12.3127ZM7.14998 12.3127C6.85717 12.3127 6.61995 12.5499 6.61995 12.8427H7.35995C7.35995 12.9586 7.26586 13.0527 7.14998 13.0527V12.3127ZM6.61995 12.8427C6.61995 13.1356 6.85725 13.3727 7.14998 13.3727V12.6327C7.26584 12.6327 7.35995 12.7268 7.35995 12.8427H6.61995ZM2.42762 18.8783H5.44616V18.1383H2.42762V18.8783ZM5.44616 18.8783C5.73897 18.8783 5.97619 18.6411 5.97619 18.3482H5.23619C5.23619 18.2324 5.33028 18.1383 5.44616 18.1383V18.8783ZM5.97619 18.3482V15.3295H5.23619V18.3482H5.97619ZM5.97619 15.3295C5.97619 15.0367 5.73897 14.7995 5.44616 14.7995V15.5395C5.33028 15.5395 5.23619 15.4454 5.23619 15.3295H5.97619ZM5.44616 14.7995H2.42762V15.5395H5.44616V14.7995ZM2.42762 14.7995C2.1348 14.7995 1.89758 15.0367 1.89758 15.3295H2.63758C2.63758 15.4454 2.54349 15.5395 2.42762 15.5395V14.7995ZM1.89758 15.3295V18.3482H2.63758V15.3295H1.89758ZM1.89758 18.3482C1.89758 18.6411 2.13488 18.8783 2.42762 18.8783V18.1383C2.54348 18.1383 2.63758 18.2323 2.63758 18.3482H1.89758ZM2.58765 15.8596H5.28612V15.1196H2.58765V15.8596ZM4.91612 15.4896V18.1882H5.65612V15.4896H4.91612ZM5.28612 17.8182H2.58765V18.5582H5.28612V17.8182ZM2.95765 18.1882V15.4896H2.21765V18.1882H2.95765ZM7.14998 16.6795H12.0255V15.9395H7.14998V16.6795ZM12.0255 16.6795C12.3183 16.6795 12.5555 16.4423 12.5555 16.1494H11.8155C11.8155 16.0336 11.9096 15.9395 12.0255 15.9395V16.6795ZM12.5555 16.1494C12.5555 15.8566 12.3183 15.6194 12.0255 15.6194V16.3594C11.9096 16.3594 11.8155 16.2653 11.8155 16.1494H12.5555ZM12.0255 15.6194H7.14998V16.3594H12.0255V15.6194ZM7.14998 15.6194C6.85717 15.6194 6.61995 15.8566 6.61995 16.1494H7.35995C7.35995 16.2653 7.26586 16.3594 7.14998 16.3594V15.6194ZM6.61995 16.1494C6.61995 16.4423 6.85725 16.6795 7.14998 16.6795V15.9395C7.26584 15.9395 7.35995 16.0335 7.35995 16.1494H6.61995ZM7.14998 18.0586H9.60337V17.3186H7.14998V18.0586ZM9.60337 18.0586C9.89618 18.0586 10.1334 17.8213 10.1334 17.5285H9.39341C9.39341 17.4126 9.48749 17.3186 9.60337 17.3186V18.0586ZM10.1334 17.5285C10.1334 17.2357 9.89618 16.9985 9.60337 16.9985V17.7385C9.48749 17.7385 9.39341 17.6444 9.39341 17.5285H10.1334ZM9.60337 16.9985H7.14998V17.7385H9.60337V16.9985ZM7.14998 16.9985C6.85717 16.9985 6.61995 17.2357 6.61995 17.5285H7.35995C7.35995 17.6444 7.26586 17.7385 7.14998 17.7385V16.9985ZM6.61995 17.5285C6.61995 17.8214 6.85725 18.0586 7.14998 18.0586V17.3186C7.26584 17.3186 7.35995 17.4126 7.35995 17.5285H6.61995Z" fill="black" mask="url(#path-2-inside-1_382_705)"/>
<g clip-path="url(#clip0_382_705)">
<path d="M3.79274 8.09531C3.75373 8.09531 3.71472 8.08053 3.6848 8.05061L3.10417 7.46999C3.0447 7.41052 3.0447 7.31394 3.10417 7.25448C3.16363 7.19501 3.26021 7.19501 3.31968 7.25448L3.79274 7.72754L4.73848 6.78141C4.79795 6.72195 4.89453 6.72195 4.95399 6.78141C5.01346 6.84088 5.01346 6.93746 4.95399 6.99692L3.90031 8.05061C3.87076 8.08016 3.83175 8.09531 3.79274 8.09531Z" fill="#231F20"/>
</g>
<g clip-path="url(#clip1_382_705)">
<path d="M3.79274 12.8814C3.75373 12.8814 3.71472 12.8667 3.6848 12.8367L3.10417 12.2561C3.0447 12.1967 3.0447 12.1001 3.10417 12.0406C3.16363 11.9811 3.26021 11.9811 3.31968 12.0406L3.79274 12.5137L4.73848 11.5675C4.79795 11.5081 4.89453 11.5081 4.95399 11.5675C5.01346 11.627 5.01346 11.7236 4.95399 11.7831L3.90031 12.8367C3.87076 12.8663 3.83175 12.8814 3.79274 12.8814Z" fill="#231F20"/>
</g>
<g clip-path="url(#clip2_382_705)">
<path d="M3.79274 17.3788C3.75373 17.3788 3.71472 17.364 3.6848 17.3341L3.10417 16.7534C3.0447 16.694 3.0447 16.5974 3.10417 16.5379C3.16363 16.4785 3.26021 16.4785 3.31968 16.5379L3.79274 17.011L4.73848 16.0649C4.79795 16.0054 4.89453 16.0054 4.95399 16.0649C5.01346 16.1243 5.01346 16.2209 4.95399 16.2804L3.90031 17.3341C3.87076 17.3636 3.83175 17.3788 3.79274 17.3788Z" fill="#231F20"/>
</g>
<circle cx="7.21974" cy="1.37379" r="0.323252" fill="black"/>
<defs>
<clipPath id="clip0_382_705">
<rect width="1.93921" height="1.93921" fill="white" transform="translate(3.05957 6.44629)"/>
</clipPath>
<clipPath id="clip1_382_705">
<rect width="1.93921" height="1.93921" fill="white" transform="translate(3.05957 11.2327)"/>
</clipPath>
<clipPath id="clip2_382_705">
<rect width="1.93921" height="1.93921" fill="white" transform="translate(3.05957 15.73)"/>
</clipPath>
</defs>
</svg>
