<svg width="22" height="22" viewBox="0 0 22 22" fill="none" xmlns="http://www.w3.org/2000/svg">
<path d="M11.0028 0H10.9973C4.93213 0 1.44333e-05 4.93349 1.44333e-05 11C-0.00375182 13.3169 0.729656 15.5749 2.09414 17.4474L0.723264 21.5338L4.95138 20.1822C6.74489 21.3721 8.85043 22.0046 11.0028 22C17.0679 22 22 17.0651 22 11C22 4.93487 17.0679 0 11.0028 0ZM17.4034 15.5334C17.138 16.2827 16.0847 16.9042 15.2446 17.0857C14.6699 17.2081 13.9191 17.3057 11.3919 16.258C8.15925 14.9187 6.07751 11.6339 5.91526 11.4207C5.75988 11.2076 4.60901 9.68136 4.60901 8.10287C4.60901 6.52437 5.41063 5.75574 5.73376 5.42574C5.99913 5.15487 6.43776 5.03112 6.85851 5.03112C6.99463 5.03112 7.11701 5.03799 7.22701 5.04349C7.55013 5.05724 7.71238 5.07649 7.9255 5.58662C8.19088 6.22599 8.83713 7.80449 8.91413 7.96674C8.9925 8.12899 9.07088 8.34899 8.96088 8.56211C8.85775 8.78211 8.767 8.87974 8.60475 9.06674C8.4425 9.25374 8.2885 9.39674 8.12625 9.59749C7.97775 9.77211 7.81 9.95911 7.997 10.2822C8.184 10.5985 8.83025 11.6531 9.78175 12.5001C11.0096 13.5932 12.0051 13.9425 12.3612 14.091C12.6266 14.201 12.9429 14.1749 13.1367 13.9686C13.3829 13.7032 13.6867 13.2632 13.9961 12.8301C14.2161 12.5194 14.4939 12.4809 14.7854 12.5909C15.0824 12.694 16.654 13.4709 16.9771 13.6317C17.3002 13.794 17.5134 13.871 17.5917 14.0071C17.6687 14.1432 17.6687 14.7826 17.4034 15.5334Z" fill="white"/>
</svg>
