<svg width="32" height="22" viewBox="0 0 32 22" fill="none" xmlns="http://www.w3.org/2000/svg">
<path d="M31.3022 7.75371C31.3726 5.71796 30.9274 3.69745 30.008 1.87978C29.3842 1.13394 28.5185 0.63062 27.5617 0.457517C23.6043 0.0984324 19.6305 -0.0487445 15.6574 0.0166167C11.6987 -0.0517111 7.73926 0.0907166 3.79575 0.443295C3.01609 0.585117 2.29458 0.950816 1.71925 1.49577C0.439216 2.67624 0.29699 4.69585 0.154764 6.40256C-0.0515881 9.47118 -0.0515881 12.5502 0.154764 15.6188C0.195911 16.5794 0.338938 17.5329 0.581442 18.4633C0.752931 19.1817 1.09989 19.8462 1.59125 20.3976C2.17049 20.9714 2.9088 21.3579 3.71041 21.5069C6.77668 21.8854 9.86626 22.0423 12.9551 21.9763C17.933 22.0474 22.2993 21.9763 27.4621 21.5781C28.2834 21.4382 29.0425 21.0512 29.6382 20.4687C30.0364 20.0704 30.3338 19.5828 30.5058 19.0464C31.0144 17.4857 31.2642 15.8522 31.2453 14.2108C31.3022 13.4143 31.3022 8.60706 31.3022 7.75371ZM12.4431 15.0641V6.26033L20.8629 10.6836C18.5019 11.992 15.3872 13.4712 12.4431 15.0641Z" fill="white"/>
</svg>
